<ttFont>
          <CharString index="0">
            hlineto
            -104 callgsubr
            return
          </CharString>
          <CharString index="1">
            -101 callsubr
            154 -103 callsubr
            return
          </CharString>
          <CharString index="2">
            9 20 -30 50 rlineto
            return
          </CharString>
          <CharString index="3">
            -13 17 -28 26 -24 9 -20 -12 -21 -28 -13 -26 14 -20 32 -24 21 -8 21 14 22 28 9 24 rrcurveto
            return
          </CharString>
          <CharString index="4">
            hlineto
            -105 callsubr
            return
          </CharString>
          <CharString index="5">
            59 -98 callgsubr
            return
          </CharString>
          <CharString index="6">
            vlineto
            -94 callgsubr
            return
          </CharString>
          <CharString index="7">
            rmoveto
            -105 callsubr
            return
          </CharString>
          <CharString index="8">
            76 -76 74 -89 -60 -62 -34 -42 -44 vhcurveto
            49 -67 57 54 75 33 49 -5 rlinecurve
            19 -12 15 -26 -27 vvcurveto
            -35 -24 -48 -68 -34 vhcurveto
            -35 -1 -36 -11 -31 -25 45 -79 rcurveline
            106 55 rlineto
            56 -17 23 -48 -43 vvcurveto
            -57 -42 -52 -75 -88 -67 70 131 -61 vhcurveto
            return
          </CharString>
          <CharString index="9">
            -81 callsubr
            -198 49 rmoveto
            80 -55 47 102 101 hhcurveto
            37 34 -14 -19 34 hvcurveto
            -92 vlineto
            -49 -64 -85 -31 -64 38 rrcurveto
            return
          </CharString>
          <CharString index="10">
            30 -50 rlineto
            90 138 callsubr
            endchar
          </CharString>
          <CharString index="11">
            hstem
            20 102 407 103 vstem
            20 321 rmoveto
            -229 155 -112 154 151 152 107 230 227 -147 126 -164 -172 -129 -140 -209 vhcurveto
            289 280 rmoveto
            151 69 -143 -146 -115 -43 -96 -62 -40 hvcurveto
            -7 -28 -25 -3 -24 hhcurveto
            -159 -66 142 142 105 36 102 55 42 hvcurveto
            12 35 32 5 29 hhcurveto
            return
          </CharString>
          <CharString index="12">
            hstem
            20 94 vstem
            199 427 rmoveto
            72 5 57 -44 13 -63 -219 -10 rcurveline
            11 46 24 44 42 22 rrcurveto
            207 -333 rmoveto
            -20 -45 -43 -13 -40 hhcurveto
            -92 -72 68 118 hvcurveto
            5 0 5 5 vvcurveto
            257 -5 57 56 rlineto
            101 2 -77 74 -104 hhcurveto
            -137 -92 -128 -134 -125 81 -116 164 hvcurveto
            156 66 rlineto
            return
          </CharString>
          <CharString index="13">
            101 53 -4 -34 -35 -53 -20 -106 -3 hvcurveto
            -87 callgsubr
            return
          </CharString>
          <CharString index="14">
            vstem
            290 647 rmoveto
            7 -18 -234 -567 -29 -9 -29 -9 -25 235 callgsubr
            258 hlineto
            1 47 -105 12 56 142 rlineto
            270 hlineto
            53 -134 -32 -10 -36 -11 -30 -14 rlinecurve
            6 -32 rlineto
            155 callgsubr
            -73 8 -254 619 rlineto
            return
          </CharString>
          <CharString index="15">
            hlineto
            -82 callgsubr
            return
          </CharString>
          <CharString index="16">
            -31 0 70 -70 181 108 73.5 222 65.5 -50 50 240 callsubr
            177 callgsubr
            466 hlineto
            hintmask 01101100
            8 43 6 83 -2 53 -53 4 rcurveline
            hintmask 10110100
            -26 -108 -227 -10 rlineto
            229 vlineto
            229 -10 rlineto
            87 vlineto
            -229 -17 rlineto
            238 vlineto
            218 -15 12 -92 rlineto
            54 hlineto
            hintmask 10101100
            11 61 2 71 -3 33 rrcurveto
            -457 hlineto
            -1 -48 71 -4 rlineto
            -535 215 callgsubr
            return
          </CharString>
          <CharString index="17">
            20 268 rmoveto
            -203 98 108 -43 79 hhcurveto
            -85 callsubr
            return
          </CharString>
          <CharString index="18">
            -92 callsubr
            endchar
          </CharString>
          <CharString index="19">
            -47 callgsubr
            -46 -19 -112 -14 vhcurveto
            return
          </CharString>
          <CharString index="20">
            vlineto
            -40 35 -42 -1 -54 -12 -40 -18 rlinecurve
            return
          </CharString>
          <CharString index="21">
            526 -101 callsubr
            return
          </CharString>
          <CharString index="22">
            102 63 70 85 23 -5 25 -10 23 hvcurveto
            47 -18 36 -2 31 12 rrcurveto
            -235 vlineto
            -82 callgsubr
            return
          </CharString>
          <CharString index="23">
            -79 callgsubr
            -122 hlineto
            return
          </CharString>
          <CharString index="24">
            -16 21 -7 19 -6 24 rrcurveto
            97 10 53 42 49 vvcurveto
            118 callgsubr
            return
          </CharString>
          <CharString index="25">
            -48 -90 -119 -20 -62 27 rrcurveto
            return
          </CharString>
          <CharString index="26">
            -109 118 -86 89 35 31 13 22 26 vhcurveto
            return
          </CharString>
          <CharString index="27">
            266 vlineto
            36 47 69 39 40 hhcurveto
            34 30 -27 -81 hvcurveto
            -241 vlineto
            -21 -7 -22 -8 -14 -7 5 -33 rcurveline
            205 hlineto
            6 48 -16 7 -27 5 -27 4 38 callsubr
            -34 -83 -43 -58 -87 hvcurveto
            66 -87 callsubr
            return
          </CharString>
          <CharString index="28">
            246 callgsubr
            -90 67 -103 168 -118 hvcurveto
            34 44 rlineto
            29 callsubr
            return
          </CharString>
          <CharString index="29">
            -107 callsubr
            205 hlineto
            1 -140 rlineto
            -28 -4 -22 -8 -17 vhcurveto
            -113 hlineto
            -22 -50 return
          </CharString>
          <CharString index="30">
            207 117 hlineto
            -43 38 108 callsubr
            -664 152 callgsubr
            -74 -156 hlineto
            -105 -46 -55 -50 -68 84 -91 102 -15 hvcurveto
            151 52 rlineto
            return
          </CharString>
          <CharString index="31">
            -88 callsubr
            -13 -36 return
          </CharString>
          <CharString index="32">
            rmoveto
            -44 -37 22 38 -18 hvcurveto
            213 -101 callsubr
            244 -263 hlineto
            -35 -30 -38 -13 -34 hhcurveto
            return
          </CharString>
          <CharString index="33">
            vlineto
            29 9 30 10 26 12 rrcurveto
            return
          </CharString>
          <CharString index="34">
            -71 callgsubr
            157 228 callsubr
            return
          </CharString>
          <CharString index="35">
            55 callsubr
            -51 -50 -33 -56 -35 19 -48 85 -53 hvcurveto
            26 35 -87 48 30 91 76 -7 rlinecurve
            31 -23 5 -31 -38 vvcurveto
            return
          </CharString>
          <CharString index="36">
            56 -39 28 -28 -40 vvcurveto
            return
          </CharString>
          <CharString index="37">
            rmoveto
            -28 -14 -23 -25 -4 -34 12 -29 22 -17 32 -7 27 13 18 21 7 29 -2 24 -30 28 318 callgsubr
          </CharString>
          <CharString index="38">
            hlineto
            -71 callsubr
            return
          </CharString>
          <CharString index="39">
            rmoveto
            61 44 44 62 64 -48 47 -61 -62 -46 -48 -61 -65 51 -43 61 hvcurveto
            -3 156 rmoveto
            32 25 -25 -34 -33 -23 -23 -33 -32 -27 23 34 33 25 25 33 hvcurveto
            return
          </CharString>
          <CharString index="40">
            3 0 52 546.5 -22 callgsubr
            248 93 hintmask 11010000
            1 118 callsubr
            62 -7 186 -344 rlineto
            -191 vlineto
            -27 -9 -27 -9 -24 -11 6 -32 rcurveline
            246 hlineto
            1 47 -82 10 rlineto
            192 vlineto
            hintmask 10110000
            185 343 25 7 24 9 22 335 callgsubr
            -220 hlineto
            -1 -47 79 -9 -142 -287 rlineto
            -5 hlineto
            -26 81 rlineto
            hintmask 10110000
            -109 205 23 7 24 8 20 335 callgsubr
            return
          </CharString>
          <CharString index="41">
            rmoveto
            -14 18 -29 27 -25 10 -20 -13 -23 -29 -13 -27 15 -21 32 -25 23 -9 21 15 24 30 9 24 rrcurveto
            return
          </CharString>
          <CharString index="42">
            60 489 rmoveto
            -109 97 -47 86 -41 vhcurveto
            89 -42 61 -30 -70 vvcurveto
            -38 -18 -43 -40 -21 vhcurveto
            -58 -6 -79 8 -64 48 -14 120 rcurveline
            -54 hlineto
            -11 -61 -2 -75 3 -33 rrcurveto
            -46 45 101 -23 65 hhcurveto
            115 106 70 122 113 -92 46 -94 44 hvcurveto
            -86 40 -63 29 66 vvcurveto
            34 16 38 32 19 vhcurveto
            return
          </CharString>
          <CharString index="43">
            66 callsubr
            292 callgsubr
            -35 callgsubr
            170 -101 callsubr
            return
          </CharString>
          <CharString index="44">
            -38 -29 -60 -5 -56 23 -13 13 -16 13 -19 11 rrcurveto
            43 35 19 44 39 vvcurveto
            return
          </CharString>
          <CharString index="45">
            rmoveto
            39 35 27 24 19 35 122 -81 42 hhcurveto
            27 26 33 85 56 hvcurveto
            -28 25 -84 -70 rlineto
            55 -106 -56 31 -33 hhcurveto
            -38 -34 -44 -69 -46 hvcurveto
            return
          </CharString>
          <CharString index="46">
            27 -39 114 9 -11 -94 -134 -41 rlinecurve
            13 -34 106 22 60 35 10 51 rlinecurve
            44 9 -35 54 -89 hhcurveto
            return
          </CharString>
          <CharString index="47">
            168 callsubr
            -86 -54 108 161 -48 hvcurveto
            return
          </CharString>
          <CharString index="48">
            -54 callgsubr
            6 -32 rcurveline
            return
          </CharString>
          <CharString index="49">
            346 callgsubr
            126 283 callgsubr
            390 rmoveto
            111 callgsubr
            122 hhcurveto
            71 61 48 81 55 -29 60 -54 41 hvcurveto
            169 -331 -93 callgsubr
            -688 -107 callsubr
            494 -126 75 callsubr
            return
          </CharString>
          <CharString index="50">
            hlineto
            -9 -20 30 -50 rlineto
            189 -160 hlineto
            -7 callsubr
            return
          </CharString>
          <CharString index="51">
            -44 46 14 98 55 35 91 callsubr
            -359 hlineto
            -9 -20 28 -46 rlineto
            109 hlineto
            -12 -20 -7 -24 -25 vvcurveto
            -59 37 205 callgsubr
            return
          </CharString>
          <CharString index="52">
            rmoveto
            16 75 rlineto
            3 13 11 1 8 hhcurveto
            31 26 -20 -37 -15 -4 -25 -62 -62 hvcurveto
            -90 -89 14 -37 rlineto
            211 hlineto
            11 67 -155 -21 -2 6 rlineto
            93 69 49 55 53 vvcurveto
            47 -37 49 -73 -41 -36 -15 -19 -29 vhcurveto
            -2 -25 3 -35 5 -25 rrcurveto
            endchar
          </CharString>
          <CharString index="53">
            rmoveto
            59 38 41 54 63 43 -55 -76 -44 -15 -40 -25 -33 vhcurveto
            -90 12 -68 56 80 vvcurveto
            return
          </CharString>
          <CharString index="54">
            vvcurveto
            -53 43 -53 75 4 vhcurveto
            116 54 -17 39 rlineto
            -94 -51 -50 34 49 vvcurveto
            return
          </CharString>
          <CharString index="55">
            rmoveto
            83 35 73 31 84 32 -50 84 rcurveline
            -225 -125 rlineto
            return
          </CharString>
          <CharString index="56">
            18 -12 18 -22 -23 -11 -18 -18 -18 11 -18 23 22 12 18 18 vhcurveto
            return
          </CharString>
          <CharString index="57">
            124 -5 75 -74 53 298 76 115 70 hstemhm
            38 75 355 83 64 69 hintmask 10111110
            496 70 rmoveto
            -46 -31 24 46 -34 hvcurveto
            48 93 33 110 47 30 rrcurveto
            64 -14 38 -77 -68 vvcurveto
            -68 -38 -76 -81 vhcurveto
            hintmask 01111110
            128 callsubr
            42 -34 -59 45 vhcurveto
            -100 -44 -39 -105 -67 hhcurveto
            539 489 194 callgsubr
            468 -119 hlineto
            -40 -17 -30 -48 -27 -56 -100 106 rcurveline
            122 callgsubr
            96 61 45 45 59 35 hvcurveto
            hintmask 10111110
            78 -85 rlineto
            -12 23 21 -8 30 hhcurveto
            92 77 76 116 110 -68 85 -65 31 hvcurveto
            87 -101 callsubr
            return
          </CharString>
          <CharString index="58">
            -97 267 29 24 30 33 336 callsubr
            19 -95 -44 -29 -67 -5 -58 19 rlinecurve
            66 callsubr
            292 callgsubr
            return
          </CharString>
          <CharString index="59">
            vlineto
            -59 callsubr
            return
          </CharString>
          <CharString index="60">
            73 -26 79 320 81 84 70 hstemhm
            106 71 232 78 -20 73 hintmask 11111000
            671 286 -66 callsubr
            -625 -79 rmoveto
            -178 120 100 -55 98 hhcurveto
            hintmask 11110100
            110 66 71 80 78 -63 76 -90 21 145 callgsubr
            -23 17 -16 20 25 vvcurveto
            42 45 23 58 vhcurveto
            hintmask 11111000
            198 hlineto
            -1 1 10 -1 rlineto
            127 -101 callsubr
            244 -103 callsubr
            -688 152 callgsubr
            -86 hlineto
            -2 2 rlineto
            -153 hlineto
            -97 -51 -52 -56 -75 90 -92 92 -14 hvcurveto
            161 53 rlineto
            hintmask 11110100
            -61 49 -52 -104 -118 hhcurveto
            -86 -76 56 127 -84 hvcurveto
            return
          </CharString>
          <CharString index="61">
            -60 80 callgsubr
            363 -143 hlineto
            -96 52 rlineto
            -93 20 -83 -73 -82 vvcurveto
            -92 103 -94 96 29 24 8 16 20 vhcurveto
            return
          </CharString>
          <CharString index="62">
            96 callsubr
            -30 23 rlineto
            hintmask 0111101101000000
            107 73 68 85 80 -66 66 -81 18 hvcurveto
            -52 callgsubr
            hintmask 0111101110000000
            -77 callsubr
            hintmask 0111110101000000
            45 callsubr
            -37 -29 96 -146 96 -53 80 -12 rlinecurve
            -95 vlineto
            return
          </CharString>
          <CharString index="63">
            -6 32 rlineto
            -251 hlineto
            -1 -47 97 -11 rlineto
            -360 vlineto
            19 -136 -344 554 rlineto
            -178 hlineto
            -1 -47 65 -8 rlineto
            -532 215 callgsubr
            return
          </CharString>
          <CharString index="64">
            -41 callgsubr
            -353 vlineto
            -25 -8 -29 -10 -17 294 callgsubr
            return
          </CharString>
          <CharString index="65">
            2 25 -41 6 rlineto
            42 42 vlineto
            13 20 rlineto
            26 -55 195 vlineto
            -51 11 -155 -222 11 -30 rlineto
            132 -37 hlineto
            -19 -5 -18 -7 -16 -8 3 -16 rcurveline
            50 205 rmoveto
            -87 vlineto
            -75 -1 85 131 rlineto
            endchar
          </CharString>
          <CharString index="66">
            13 -20 76 83 58 200 60 81 70 hstem
            206 81 46 65 vstem
            663 -100 callgsubr
            -663 -88 callgsubr
            123 vlineto
            -41 36 rlineto
            233 -81 rmoveto
            129 callsubr
            55 81 42 96 68 -57 112 -137 hvcurveto
            27 -60 167 callgsubr
            133 callsubr
            64 -70 50 119 95 hhcurveto
            return
          </CharString>
          <CharString index="67">
            322 5 rmoveto
            -31 callsubr
            return
          </CharString>
          <CharString index="68">
            -315 hlineto
            -48 -97 -119 -23 -62 40 rrcurveto
            return
          </CharString>
          <CharString index="69">
            rmoveto
            134 -144 81 2 119 158 -51 42 -106 -136 -114 135 rlineto
            endchar
          </CharString>
          <CharString index="70">
            108 -29 callgsubr
            return
          </CharString>
          <CharString index="71">
            326 41 346 callgsubr
            136 70 hstem
            587 76 84 83 vstem
            22 callgsubr
            241 -122 -97 callgsubr
            -941 -107 callsubr
            747 -136 -554 -47 hlineto
            91 -41 rlineto
            -60 callsubr
            -50 -16 rlineto
            16 callgsubr
            167 hlineto
            return
          </CharString>
          <CharString index="72">
            hlineto
            -94 callgsubr
            return
          </CharString>
          <CharString index="73">
            159 146 79 112 74 127 70 hstem
            58 338 callsubr
            vstem
            774 -100 callgsubr
            -774 323 callsubr
            109 -118 108 20 23 4 14 24 vhcurveto
            -62 callgsubr
            -141 -313 17 callgsubr
            return
          </CharString>
          <CharString index="74">
            rmoveto
            74 41 46 66 62 vvcurveto
            37 -18 38 -54 22 vhcurveto
            -33 -14 -25 -32 -3 -34 52 -40 rcurveline
            -3 -37 -27 -44 -38 -27 rrcurveto
            return
          </CharString>
          <CharString index="75">
            hstem
            20 93 vstem
            377 82 rmoveto
            -16 -36 -39 -7 -29 hhcurveto
            -103 -57 83 112 66 20 56 42 49 hvcurveto
            59 -4 62 -30 51 -40 53 71 rcurveline
            43 -44 -47 23 -61 hhcurveto
            -131 -97 -104 -150 return
          </CharString>
          <CharString index="76">
            324 callsubr
            47 hhcurveto
            return
          </CharString>
          <CharString index="77">
            203 rmoveto
            13 -72 rlineto
            hintmask 11101000
            -39 -23 -64 -13 -55 17 rrcurveto
            -34 26 -14 36 32 vvcurveto
            55 42 47 109 23 26 -2 -8 41 vhcurveto
            -4 79 rlineto
            10 -39 -38 3 -28 hhcurveto
            hintmask 11110000
            -37 -32 -6 -9 -27 hvcurveto
            -49 30 -13 35 27 vvcurveto
            53 50 31 71 50 46 -16 -25 44 vhcurveto
            76 vlineto
            30 -47 -59 12 -49 hhcurveto
            -112 -67 -64 -73 -54 36 -49 55 -35 hvcurveto
            hintmask 11101000
            -43 -31 -21 -44 -46 vvcurveto
            -64 39 -53 58 -38 vhcurveto
            -28 42 46 -14 45 hhcurveto
            24 24 4 9 24 hvcurveto
            41 -163 51 10 6 17 -55 159 25 20 21 29 4 18 rlinecurve
            -95 84 rlineto
            endchar
          </CharString>
          <CharString index="78">
            -46 -45 -30 -38 -35 hvcurveto
            94 callgsubr
            return
          </CharString>
          <CharString index="79">
            169 callgsubr
            252 vlineto
            hintmask 10101111
            -73 callsubr
            -766 46 callsubr
            hintmask 11011111
            -88 27 -105 -63 -103 vvcurveto
            -86 72 -71 74 -26 vhcurveto
            -156 -114 63 -50 244 194 rlineto
            -198 43 rmoveto
            80 -55 47 102 101 hhcurveto
            37 34 -14 -19 34 hvcurveto
            -92 vlineto
            301 callsubr
          </CharString>
          <CharString index="80">
            -331 538 70 return
          </CharString>
          <CharString index="81">
            7 -242 rmoveto
            -33 -45 8 22 -31 hvcurveto
            -56 64 15 92 69 38 134 -217 rcurveline
            -5 -17 -18 -2 -18 hhcurveto
            return
          </CharString>
          <CharString index="82">
            -6 callsubr
            250 vlineto
            71 59 45 40 47 hhcurveto
            return
          </CharString>
          <CharString index="83">
            15 311 rmoveto
            -173 115 -171 239 13 vhcurveto
            195 91 rlineto
            172 vlineto
            76 9 -1 49 rlineto
            -272 hlineto
            -6 -35 35 -16 41 -13 34 -10 rlinecurve
            -151 vlineto
            -12 -39 -46 -10 -44 hhcurveto
            -149 -76 130 135 114 37 114 91 50 hvcurveto
            return
          </CharString>
          <CharString index="84">
            rmoveto
            -14 18 -30 28 -26 10 -22 -13 -23 -30 -14 -29 15 -21 35 -26 23 -9 22 15 24 31 10 26 rrcurveto
            return
          </CharString>
          <CharString index="85">
            81 68 74 169 70 hstem
            195 callsubr
            vstem
            624 -100 callgsubr
            -624 hlineto
            -9 -20 30 -50 rlineto
            58 -156 hlineto
            -59 callgsubr
            -4 callsubr
            -142 -311 -75 callsubr
            return
          </CharString>
          <CharString index="86">
            -104 rmoveto
            -1 17 -125 124 rlineto
            2 3 0 2 hhcurveto
            hintmask 11010000
            133 73 73 78 59 -43 63 -87 41 hvcurveto
            hintmask 11100000
            44 26 32 41 51 vvcurveto
            80 -79 82 -109 -72 -75 -36 -40 -42 vhcurveto
            49 -70 60 53 93 37 60 -6 rlinecurve
            32 -17 11 -32 -26 vvcurveto
            -53 -45 -38 -61 -19 vhcurveto
            -39 3 -46 -9 -41 -27 44 -81 rcurveline
            125 51 rlineto
            hintmask 11010000
            77 -20 36 -42 -45 vvcurveto
            -59 -61 -49 -93 -11 -10 1 1 -11 vhcurveto
            -57 84 -33 -8 -38 -92 16 -19 57 -31 41 -4 rlinecurve
            148 -174 rlineto
            endchar
          </CharString>
          <CharString index="87">
            462 323 rmoveto
            37 -12 32 -19 26 vhcurveto
            13 28 32 7 35 hhcurveto
            -19 104 -50 -10 -45 -29 -24 -46 rlinecurve
            26 -37 -48 13 -48 hhcurveto
            -100 -108 -59 -112 -78 51 -51 64 -25 hvcurveto
            -38 -27 -41 -39 -27 -33 18 -47 rcurveline
            26 -1 27 -1 26 -2 rrcurveto
            return
          </CharString>
          <CharString index="88">
            rmoveto
            69 69 37 58 -45 vhcurveto
            17 -22 8 -44 -39 vvcurveto
            -37 -7 -35 -14 -32 vhcurveto
            -91 50 -40 46 52 vvcurveto
            return
          </CharString>
          <CharString index="89">
            166 vlineto
            48 39 39 33 35 hhcurveto
            25 19 -17 -28 -41 -39 -47 -73 -52 hvcurveto
            51 -57 rlineto
            58 39 61 53 77 vvcurveto
            77 -62 63 -62 -33 -32 -18 -26 -26 vhcurveto
            83 vlineto
            return
          </CharString>
          <CharString index="90">
            300 -100 callsubr
            hintmask 01011010
            -207 hlineto
            -44 31 -11 41 25 vvcurveto
            53 50 31 71 50 46 -16 -25 44 vhcurveto
            76 vlineto
            30 -47 -59 12 -49 hhcurveto
            -111 -67 -64 -67 -43 27 -52 43 -37 hvcurveto
            hintmask 01010110
            -149 hlineto
            hintmask 00110110
            -9 -20 rlineto
            hintmask 11010110
            28 -45 rlineto
            100 hlineto
            -21 -29 -9 -33 -33 vvcurveto
            -83 62 -79 92 39 35 14 35 92 vhcurveto
            21 -35 -18 -53 -60 -56 73 -43 rcurveline
            106 118 -77 142 -96 hhcurveto
            -43 -63 -28 -26 -73 hvcurveto
            -56 57 31 115 62 29 rrcurveto
            endchar
          </CharString>
          <CharString index="91">
            62 callgsubr
            hstemhm
            115 75 364 76 hintmask 10101100
            35 callsubr
            hintmask 01101100
            355 -568 rlineto
            hintmask 10011100
            103 11 rlineto
            587 -74 callsubr
            hintmask 10101100
            -44 callsubr
            return
          </CharString>
          <CharString index="92">
            -100 callsubr
            hintmask 11100100
            -116 hlineto
            -20 41 -9 39 31 vvcurveto
            25 callgsubr
            -69 -55 -56 -83 -11 1 -12 2 -13 hvcurveto
            hintmask 11011010
            118 -88 -110 81 -112 hhcurveto
            -93 -74 -57 -84 -57 34 -49 44 -40 hvcurveto
            29 21 rlineto
            -18 20 -10 32 28 vvcurveto
            54 40 54 80 96 94 -77 -160 102 vhcurveto
            -109 74 callsubr
            endchar
          </CharString>
          <CharString index="93">
            37 3 47 -6 40 -18 7 -77 rcurveline
            54 hlineto
            15 41 4 45 -2 43 rrcurveto
            19 -37 -45 11 -46 hhcurveto
            -98 -92 -49 -94 hvcurveto
            return
          </CharString>
          <CharString index="94">
            360 -74 -156 hlineto
            -105 -46 -54 -54 -73 85 -94 101 -15 hvcurveto
            168 45 rlineto
            return
          </CharString>
          <CharString index="95">
            138 callgsubr
            hstemhm
            102 89 142.5 77.5 hintmask 11000100
            288 hmoveto
            6 48 -20 9 -48 7 -35 2 rlinecurve
            226 vlineto
            hintmask 10010110
            42 54 55 42 40 23 rrcurveto
            hintmask 11000110
            11 -110 rlineto
            54 hlineto
            13 51 8 60 -3 51 -32 20 -38 6 -45 -19 -105 -112 rcurveline
            hintmask 10001100
            91 -87 callsubr
            hintmask 10100100
            -41 callgsubr
            -352 vlineto
            -25 -8 -31 -10 -17 -9 5 -33 rcurveline
            return
          </CharString>
          <CharString index="96">
            hhcurveto
            -89 -64 -59 -75 -57 37 -50 44 -40 hvcurveto
            28 21 rlineto
            -20 26 -11 32 26 vvcurveto
            50 38 48 69 92 76 -88 -143 71 vhcurveto
            -110 74 callsubr
            endchar
          </CharString>
          <CharString index="97">
            -28 36 51 -24 59 hhcurveto
            47 50 15 40 40 hvcurveto
            -129 -105 callgsubr
            -305 -107 callsubr
            111 -270 hlineto
            -47 -113 -151 -26 -55 29 return
          </CharString>
          <CharString index="98">
            -100 callsubr
            hintmask 11100100
            -115 hlineto
            -20 41 -9 39 31 vvcurveto
            25 callgsubr
            -69 -55 -56 -83 hvcurveto
            -3 0 -3 -3 vvcurveto
            hintmask 11011010
            102 -69 -90 64 -95 -11 callsubr
          </CharString>
          <CharString index="99">
            64 -70 50 119 95 hhcurveto
            -220 -467 rmoveto
            -104 callsubr
            return
          </CharString>
          <CharString index="100">
            110 callsubr
            -125 hlineto
            -22 -60 83 callsubr
            return
          </CharString>
          <CharString index="101">
            240 227 -75 callsubr
            -182 155 68 callsubr
            return
          </CharString>
          <CharString index="102">
            -88 27 -107 -62 -103 vvcurveto
            return
          </CharString>
          <CharString index="103">
            182 callgsubr
            38 24 -15 -32 31 hvcurveto
            32 28 rlineto
            62 -39 -48 31 -58 hhcurveto
            -43 -46 -23 -38 -41 hvcurveto
            192 -101 callsubr
            return
          </CharString>
          <CharString index="104">
            45 272 rmoveto
            19 -55 268 callgsubr
            48 20 rcurveline
            352 -101 callsubr
            return
          </CharString>
          <CharString index="105">
            rmoveto
            34 -33 -41 15 -39 hhcurveto
            -84 -81 -70 -118 hvcurveto
            -101 vlineto
            -22 -5 -23 -6 -23 -11 rrcurveto
            return
          </CharString>
          <CharString index="106">
            -226 185 11 12 12 11 10 12 rlinecurve
            return
          </CharString>
          <CharString index="107">
            rmoveto
            -15 20 -32 29 -28 11 -22 -14 -25 -32 -14 -30 16 -23 36 -27 25 -10 23 16 26 33 10 27 rrcurveto
            47 -649 rmoveto
            92 callgsubr
            385 -87 callsubr
            return
          </CharString>
          <CharString index="108">
            -143 -15 76 198.5 60.5 107 61 return
          </CharString>
          <CharString index="109">
            66 115 70 hstem
            126 82 273 83 vstem
            481 5 -97 callgsubr
            -675 -107 callsubr
            481 -268 hlineto
            -51 -97 return
          </CharString>
          <CharString index="110">
            117 -35 callsubr
            return
          </CharString>
          <CharString index="111">
            rmoveto
            50 57 -20 -32 53 hvcurveto
            -89 vlineto
            -17 -26 -22 -19 -24 -15 -120 199 rcurveline
            1 7 8 1 8 hhcurveto
            -98 -211 rmoveto
            -53 61 10 96 71 38 125 -205 rcurveline
            -57 -19 -61 6 -35 23 rrcurveto
            endchar
          </CharString>
          <CharString index="112">
            -72 callsubr
            -183 return
          </CharString>
          <CharString index="113">
            -31 20 -111 -69 15 -28 64 27 rlineto
            -216 vlineto
            -22 -6 -23 -8 -17 -9 3 -16 rcurveline
            179 hlineto
            return
          </CharString>
          <CharString index="114">
            419 rmoveto
            -99 52 69 121 83 -23 rrcurveto
            25 -22 8 -24 -24 vvcurveto
            -44 -28 -43 -47 -37 vhcurveto
            -129 -102 rlineto
            -48 vlineto
            hintmask 11010000
            149 -111 rlineto
            33 -25 26 -17 -31 vvcurveto
            -14 -6 -13 -9 -11 vhcurveto
            76 -39 rlineto
            16 17 11 20 22 vvcurveto
            52 -62 40 -42 32 vhcurveto
            -107 82 rlineto
            hintmask 11100000
            88 71 rlineto
            66 54 32 51 53 vvcurveto
            81 -75 92 -91 -72 -45 -58 -56 -38 22 -40 84 -49 vhcurveto
            endchar
          </CharString>
          <CharString index="115">
            rmoveto
            -38 17 -14 24 29 vvcurveto
            23 8 20 16 18 vhcurveto
            150 -82 -32 -33 -45 -18 -45 2 rlinecurve
            147 83 rmoveto
            -140 75 34 20 47 14 60 8 rlinecurve
            18 -67 -4 -19 -6 -16 -9 -15 rlinecurve
            endchar
          </CharString>
          <CharString index="116">
            23 30 40 11 39 hhcurveto
            43 40 -14 -24 26 hvcurveto
            13 -36 -33 -53 -51 -31 55 -67 rcurveline
            54 28 30 44 56 vvcurveto
            103 -100 69 -113 return
          </CharString>
          <CharString index="117">
            rmoveto
            80 -55 47 102 101 hhcurveto
            37 34 -14 -19 34 hvcurveto
            -92 vlineto
            -49 -64 -85 -31 -64 38 rrcurveto
            94 249 rmoveto
            -88 27 -105 -63 -103 vvcurveto
            return
          </CharString>
          <CharString index="118">
            3 callgsubr
            -33 -29 -41 -23 -46 -17 return
          </CharString>
          <CharString index="119">
            74.5 -70 87 hintmask 01111010
            25 32 rmoveto
            -36 65 59 -16 53 hhcurveto
            101 71 59 86 hvcurveto
            161 -251 -23 107 vvcurveto
            18 7 23 25 16 vhcurveto
            hintmask 01111100
            -14 callsubr
            hintmask 10111010
            -155 248 27 -117 vvcurveto
            -24 -10 -19 -17 -15 vhcurveto
            -75 10 -73 34 -50 34 rrcurveto
            return
          </CharString>
          <CharString index="120">
            rmoveto
            -7 callgsubr
            hintmask 10110000
            76 callgsubr
            148 -143 56 16 rlineto
            -18 36 -10 42 34 vvcurveto
            hintmask 01110000
            202 callsubr
            endchar
          </CharString>
          <CharString index="121">
            hstem
            115 93 323 104 vstem
            45 650 rmoveto
            -1 -48 71 -4 rlineto
            -535 vlineto
            5 callgsubr
            256 -584 rmoveto
            -28 -31 4 9 -34 hvcurveto
            505 vlineto
            184 15 rlineto
            79 -41 60 -108 -121 vvcurveto
            -132 -72 -131 -158 vhcurveto
            return
          </CharString>
          <CharString index="122">
            -105 callsubr
            -608 222 callgsubr
            -13 -36 return
          </CharString>
          <CharString index="123">
            32 callgsubr
            46 22 -3 -21 23 hvcurveto
            27 -53 60 -62 44 -27 rrcurveto
            return
          </CharString>
          <CharString index="124">
            -1 callgsubr
            -81 callsubr
            return
          </CharString>
          <CharString index="125" raw="1">
            fc01f7bd 0a451df7 780b 
          </CharString>
          <CharString index="126">
            -164 38 99 -342 220 hhcurveto
            124 58 109 118 144 -87 142 -113 -70 -48 -55 -63 -35 14 -38 33 -37 hvcurveto
            -37 33 50 -33 53 hhcurveto
            19 21 4 9 20 hvcurveto
            -91 -12 -51 -47 -71 hhcurveto
            -119 -85 129 307 -68 hvcurveto
            250 -226 rmoveto
            70 -27 30 74 60 hhcurveto
            50 34 -51 -74 9 hvcurveto
            -42 -35 -76 -9 -38 25 rrcurveto
            endchar
          </CharString>
          <CharString index="127">
            -4 9 -21 550 233 callgsubr
            417 5 rmoveto
            170 callgsubr
            -207 -69 208 callgsubr
            332 -101 callsubr
            235 -319 hlineto
            -297 -231 64 -52 233 191 rlineto
            return
          </CharString>
          <CharString index="128">
            2 rmoveto
            64 56 47 78 71 -46 67 -67 73 hvcurveto
            52 62 69 71 83 84 -54 60 rcurveline
            -74 -75 -74 -73 -60 -68 -82 84 -95 86 -47 44 -40 -45 rcurveline
            71 -60 91 -84 65 -68 rrcurveto
            -52 -66 -34 -60 -53 vvcurveto
            -83 85 -92 89 vhcurveto
            -101 140 rmoveto
            42 25 49 46 59 vhcurveto
            44 -53 28 -49 -43 vvcurveto
            -57 -50 -41 -68 27 vhcurveto
            -19 20 -6 26 20 vvcurveto
            endchar
          </CharString>
          <CharString index="129">
            64 hhcurveto
            42 42 14 28 33 hvcurveto
            -125 -105 callgsubr
            return
          </CharString>
          <CharString index="130">
            vvcurveto
            57 38 35 54 23 21 -7 -15 23 vhcurveto
            17 34 rlineto
            35 -27 -32 25 -48 hhcurveto
            -66 -53 -49 -68 -7 1 -7 1 -8 hvcurveto
            return
          </CharString>
          <CharString index="131">
            63 callsubr
            36 hhcurveto
            31 24 -18 -28 32 hvcurveto
            return
          </CharString>
          <CharString index="132">
            -12 callgsubr
            -116 -90 hlineto
            302 callsubr
            -86 -136 161 -106 117 23 24 4 8 23 hvcurveto
            return
          </CharString>
          <CharString index="133">
            236 vlineto
            70 -4 28 -10 19 vhcurveto
            -15 28 -38 32 -38 7 rrcurveto
            return
          </CharString>
          <CharString index="134">
            -54 callsubr
            endchar
          </CharString>
          <CharString index="135">
            -66 48 -50 -100 -120 hhcurveto
            -81 -88 46 138 -85 hvcurveto
            return
          </CharString>
          <CharString index="136">
            -107 74 -76 71 87 vvcurveto
            60 36 40 54 return
          </CharString>
          <CharString index="137">
            hintmask 10101000
            143 32 rmoveto
            6 -32 rlineto
            309 hlineto
            1 47 -114 13 rlineto
            533 vlineto
            164 -6 rlineto
            hintmask 11001000
            13 -100 rlineto
            54 hlineto
            hintmask 10011000
            121 callgsubr
            hintmask 11001000
            -3 -33 2 -75 11 -61 rrcurveto
            54 hlineto
            hintmask 10101000
            13 100 164 6 rlineto
            -527 vlineto
            -33 -10 -47 -11 -29 -13 rrcurveto
            return
          </CharString>
          <CharString index="138">
            -46 -55 -62 -68 53 -62 137 -85 hvcurveto
            318 callsubr
            return
          </CharString>
          <CharString index="139">
            -101 145 -109 -18 -77 -64 rlinecurve
            47 -77 89 57 64 -3 62 -87 rlinecurve
            return
          </CharString>
          <CharString index="140">
            -119 -110 rlineto
            -93 -11 93 -49 104 hhcurveto
            149 164 100 159 -35 hvcurveto
            -88 34 -163 32 -97 2 16 18 26 23 26 20 rrcurveto
            -2 12 13 -1 12 hhcurveto
            return
          </CharString>
          <CharString index="141">
            -102 callsubr
            231 vlineto
            69 59 46 32 44 hhcurveto
            31 15 -15 -20 19 hvcurveto
            141 callgsubr
            return
          </CharString>
          <CharString index="142">
            30 32 rmoveto
            6 -32 rlineto
            242 hlineto
            1 47 -89 10 rlineto
            361 vlineto
            -18 139 rlineto
            return
          </CharString>
          <CharString index="143">
            24 -55 66 -70 47 -29 48 20 rcurveline
            return
          </CharString>
          <CharString index="144">
            hlineto
            10 19 6 20 19 vvcurveto
            return
          </CharString>
          <CharString index="145">
            rlinecurve
            26 callsubr
            return
          </CharString>
          <CharString index="146">
            -195 -5 rlineto
            -50 -28 -20 -41 -38 vvcurveto
            return
          </CharString>
          <CharString index="147">
            rlinecurve
            -64 callsubr
            return
          </CharString>
          <CharString index="148">
            rmoveto
            48 -29 -21 -59 -42 -55 34 -33 rcurveline
            76 73 52 107 -66 66 -83 -43 rcurveline
            endchar
          </CharString>
          <CharString index="149">
            -107 callsubr
            66 hlineto
            -9 -16 -5 -17 -17 vvcurveto
            -49 36 -51 66 -37 vhcurveto
            return
          </CharString>
          <CharString index="150">
            rmoveto
            hintmask 11010000
            -39 46 -24 37 46 23 callsubr
            hintmask 10110000
            237 callsubr
            122 -173 rlineto
            35 hlineto
            endchar
          </CharString>
          <CharString index="151">
            98 109 56 113 hvcurveto
            -92 -7 rmoveto
            -31 -11 -37 -37 -30 vhcurveto
            -114 -40 -69 60 93 vvcurveto
            30 7 31 26 31 vhcurveto
            110 56 88 -77 -86 vvcurveto
            return
          </CharString>
          <CharString index="152">
            -58 47 -44 -98 -119 hhcurveto
            -84 -97 49 116 -70 hvcurveto
            return
          </CharString>
          <CharString index="153">
            -107 callsubr
            342 94 callsubr
            return
          </CharString>
          <CharString index="154">
            -88 callsubr
            143 return
          </CharString>
          <CharString index="155">
            5 callsubr
            -72 vlineto
            return
          </CharString>
          <CharString index="156">
            -59 9 -46 -9 -33 -19 rrcurveto
            -39 21 -20 31 31 vvcurveto
            26 14 27 28 22 vhcurveto
            return
          </CharString>
          <CharString index="157">
            80.5 69 callgsubr
            return
          </CharString>
          <CharString index="158">
            -107 callsubr
            68 return
          </CharString>
          <CharString index="159">
            98 -150 25 -38 16 -17 31 -7 rlinecurve
            95 43 -15 44 -35 -10 -20 0 -9 13 rlinecurve
            -122 176 158 183 -31 50 -41 -1 -78 -12 -49 -18 rlinecurve
            12 -47 84 11 -121 -141 -76 -42 rlineto
            466 -87 callsubr
            -41 callgsubr
            return
          </CharString>
          <CharString index="160">
            rmoveto
            58 53 58 50 59 49 -82 50 rcurveline
            -144 -158 rlineto
            231 -44 rmoveto
            58 53 58 50 59 49 -82 50 rcurveline
            -144 -158 rlineto
            endchar
          </CharString>
          <CharString index="161">
            vlineto
            -44 callgsubr
            return
          </CharString>
          <CharString index="162">
            90 -3 -76 93 -86 hhcurveto
            return
          </CharString>
          <CharString index="163">
            -30 rmoveto
            48 15 8 16 -101 306 10 29 11 43 -2 38 rlinecurve
            -104 26 -21 -27 33 -97 -27 -79 -98 -50 -61 58 rlinecurve
            -54 91 59 154 45 98 -78 31 rcurveline
            -38 -72 -32 -95 -76 vvcurveto
            -73 30 -61 44 -40 vhcurveto
            -32 35 48 -22 43 hhcurveto
            49 46 28 42 29 hvcurveto
            endchar
          </CharString>
          <CharString index="164">
            9 -24 -28 6 -31 hhcurveto
            -132 -120 -102 -155 -137 94 -113 135 2 hvcurveto
            109 73 13 -36 39 -35 20 303 callgsubr
            return
          </CharString>
          <CharString index="165">
            -35 26 -74 -77 rlineto
            42 -58 -64 45 -23 hhcurveto
            -37 -36 -44 -77 -50 hvcurveto
            endchar
          </CharString>
          <CharString index="166">
            26 -16 17 -43 -33 vvcurveto
            -64 -60 -71 -113 -19 vhcurveto
            -61 62 -33 -8 -32 -108 18 -18 62 -13 35 2 rlinecurve
            207 -160 37 38 return
          </CharString>
          <CharString index="167">
            rmoveto
            -31 17 -10 23 28 vvcurveto
            69 62 45 127 18 vhcurveto
            18 -67 -17 -82 -82 -52 -67 1 rlinecurve
            return
          </CharString>
          <CharString index="168">
            -27 -26 -13 -34 -30 vvcurveto
            229 callgsubr
            return
          </CharString>
          <CharString index="169">
            130 callgsubr
            10 -240 rlineto
            -73 hlineto
            return
          </CharString>
          <CharString index="170">
            313 callsubr
            56 -71 rlineto
            39 46 45 24 return
          </CharString>
          <CharString index="171">
            hstemhm
            362 67 -31 72 99 83 return
          </CharString>
          <CharString index="172">
            131 callgsubr
            -535 vlineto
            return
          </CharString>
          <CharString index="173">
            -51 31 -21 50 39 vvcurveto
            return
          </CharString>
          <CharString index="174">
            739 rmoveto
            74 17 43 29 45 hhcurveto
            47 53 -32 -74 43 hvcurveto
            34 33 rlineto
            95 -56 -80 47 -70 hhcurveto
            -71 -58 -47 -93 -19 hvcurveto
            126 -37 rmoveto
            13 -26 21 -28 20 -12 24 9 28 26 13 17 -9 24 -22 28 -21 14 -21 -8 -32 -24 -14 -20 rrcurveto
            endchar
          </CharString>
          <CharString index="175">
            rmoveto
            -59 callgsubr
            return
          </CharString>
          <CharString index="176">
            rmoveto
            -28 -29 5 11 -25 hvcurveto
            -31 28 -12 34 27 vvcurveto
            51 41 45 92 vhcurveto
            93 hlineto
            27 -26 16 -32 -35 vvcurveto
            -74 -71 -34 -73 vhcurveto
            return
          </CharString>
          <CharString index="177">
            54 48 -22 -48 57 hvcurveto
            25 -66 -30 -53 -51 -29 -131 216 rcurveline
            return
          </CharString>
          <CharString index="178">
            51 callsubr
            -176 hlineto
            339 callsubr
            return
          </CharString>
          <CharString index="179">
            70 -40 63 hstemhm
            39 73 -25 75 153 65 return
          </CharString>
          <CharString index="180">
            vvcurveto
            36 32 27 79 vhcurveto
            238 3 callsubr
            return
          </CharString>
          <CharString index="181">
            -107 callsubr
            90 138 callsubr
            return
          </CharString>
          <CharString index="182">
            -301 -47 hlineto
            91 -41 rlineto
            -60 callsubr
            return
          </CharString>
          <CharString index="183">
            -160 vlineto
            110 callsubr
            return
          </CharString>
          <CharString index="184">
            -241 249 70 hstem
            30 293 vstem
            314 249 -100 callsubr
            -254 -51 callgsubr
          </CharString>
          <CharString index="185">
            rmoveto
            84 54 59 -5 59 -57 148 -143 rcurveline
            27 17 15 10 -74 251 -62 210 -145 -18 -82 -48 rlinecurve
            39 -82 105 47 65 -23 44 -128 rlinecurve
            64 -184 -125 140 -100 112 -97 -17 -71 -59 rlinecurve
            endchar
          </CharString>
          <CharString index="186">
            rmoveto
            -11 -30 -37 -12 -25 hhcurveto
            -26 -7 14 40 hvcurveto
            269 97 vlineto
            return
          </CharString>
          <CharString index="187">
            140 callsubr
            320 243 -45 58 -30 -23 -25 -19 -31 -22 rlinecurve
            -60 -43 -79 -12 -46 26 -60 callgsubr
            hintmask 10111000
            return
          </CharString>
          <CharString index="188">
            -73 41 -69 -61 -89 hhcurveto
            -91 -71 63 90 -58 hvcurveto
            -32 -27 rlineto
            -149 96 96 -48 90 hhcurveto
            100 65 60 71 61 -46 72 -87 18 hvcurveto
            -160 -48 rlineto
            -20 15 -9 18 18 vvcurveto
            28 21 27 36 11 vhcurveto
            -11 30 29 -5 29 hhcurveto
            return
          </CharString>
          <CharString index="189">
            -326 -70 rmoveto
            -24 20 -12 31 29 vvcurveto
            84 102 24 53 13 vhcurveto
            16 4 16 5 return
          </CharString>
          <CharString index="190">
            311 -318 55 52 return
          </CharString>
          <CharString index="191">
            194 callsubr
            -278 hlineto
            -46 -93 -122 -21 -63 27 -76 callgsubr
            -46 -40 -24 -39 -14 hvcurveto
            -24 40 rlineto
            return
          </CharString>
          <CharString index="192">
            17 callgsubr
            10 -208 rmoveto
            -104 callsubr
            return
          </CharString>
          <CharString index="193">
            rmoveto
            -50 -84 84 -32 73 -31 83 -35 rlinecurve
            35 57 rlineto
            return
          </CharString>
          <CharString index="194">
            598 rmoveto
            -182 -231 rlineto
            -53 -66 -16 -53 -37 vvcurveto
            -90 94 -108 110 70 55 45 67 42 vhcurveto
            -59 57 rlineto
            -59 -37 -51 -37 -55 hhcurveto
            -52 -50 33 64 30 11 33 51 65 hvcurveto
            169 216 rlineto
            endchar
          </CharString>
          <CharString index="195">
            -274 302 callgsubr
            142 224 callgsubr
            159 -103 callsubr
            -341 228 callgsubr
            return
          </CharString>
          <CharString index="196">
            rmoveto
            -83 -53 77 100 68 25 67 46 41 hvcurveto
            65 14 63 -21 42 -33 rrcurveto
            -278 vlineto
            -24 -40 -35 -11 -30 hhcurveto
            return
          </CharString>
          <CharString index="197">
            394 -74 -177 hlineto
            188 callsubr
            return
          </CharString>
          <CharString index="198">
            rrcurveto
            138 -103 callsubr
            return
          </CharString>
          <CharString index="199">
            38 -20 hvcurveto
            233 -101 callsubr
            return
          </CharString>
          <CharString index="200">
            70 hstemhm
            23 78 221 83 return
          </CharString>
          <CharString index="201">
            131 callsubr
            rlineto
            return
          </CharString>
          <CharString index="202">
            hhcurveto
            -140 -65 -83 -82 289 callgsubr
            hvcurveto
            307 callsubr
            return
          </CharString>
          <CharString index="203">
            342 callsubr
            hintmask 1011110100100000
            -18 callsubr
            return
          </CharString>
          <CharString index="204">
            rmoveto
            -90 -57 rlineto
            -17 14 -8 19 19 vvcurveto
            34 28 32 49 61 37 -51 -151 112 vhcurveto
            39 25 rlineto
            142 -99 -74 106 -93 hhcurveto
            -61 -61 -47 -63 -65 65 -61 62 30 32 14 20 26 hvcurveto
            endchar
          </CharString>
          <CharString index="205">
            -107 callsubr
            343 317 callsubr
            return
          </CharString>
          <CharString index="206">
            55 callsubr
            -42 -41 -22 -40 -14 hvcurveto
            return
          </CharString>
          <CharString index="207">
            29 24 22 34 6 22 193 callgsubr
            -49 30 -23 47 46 vvcurveto
            51 41 67 99 vhcurveto
            -35 callgsubr
            150 vlineto
            -55 48 rlineto
            endchar
          </CharString>
          <CharString index="208">
            222 callgsubr
            -13 -36 rlineto
            return
          </CharString>
          <CharString index="209">
            61 callgsubr
            -33 -8 return
          </CharString>
          <CharString index="210">
            55 -50 261 174 55 -222 90 35 -102 210 29 24 29 32 336 callsubr
            return
          </CharString>
          <CharString index="211">
            36 -36 -44 5 -84 hhcurveto
            -82 hlineto
            5 12 2 13 12 350 callgsubr
            16 16 15 16 15 17 rlinecurve
            171 hlineto
            36 21 -2 -10 18 hvcurveto
            26 -54 62 -64 45 -28 rrcurveto
            return
          </CharString>
          <CharString index="212">
            325 16 rmoveto
            -79 32 -34 -8 -31 -22 -15 -29 rlinecurve
            -58 12 -31 33 33 vvcurveto
            21 11 27 38 12 vhcurveto
            26 -9 24 -20 30 -26 26 33 rcurveline
            41 -39 -46 39 -51 hhcurveto
            -49 -48 -37 -58 hvcurveto
            return
          </CharString>
          <CharString index="213">
            140 callsubr
            247 188 rlineto
            return
          </CharString>
          <CharString index="214">
            9 -5 10 -5 9 -4 rrcurveto
            -45 -19 -34 -43 -49 vvcurveto
            -74 77 -67 97 return
          </CharString>
          <CharString index="215">
            rlineto
            220 -103 callsubr
            return
          </CharString>
          <CharString index="216">
            -120 51 112 -97 110 hhcurveto
            return
          </CharString>
          <CharString index="217">
            -19 -3 -15 -5 -13 vhcurveto
            return
          </CharString>
          <CharString index="218">
            52.5 return
          </CharString>
          <CharString index="219">
            -225 69 -35 35 hstemhm
            -179 351 hintmask 10100000
            -179 -181 259 callgsubr
            298 hlineto
            hintmask 01100000
            47 34 rlineto
            hintmask 10100000
            -5 35 rlineto
            -233 114 callgsubr
          </CharString>
          <CharString index="220">
            96 67 47 73 63 -51 66 -66 -53 -45 -42 -51 -21 7 -22 14 -21 hvcurveto
            42 -28 rlineto
            -1 -10 -9 -1 -11 hhcurveto
            -35 -50 7 16 -34 hvcurveto
            -19 25 -13 31 32 vvcurveto
            60 46 47 96 vhcurveto
            return
          </CharString>
          <CharString index="221">
            -154 103 rlineto
            82 -4 83 44 83 vvcurveto
            63 -47 73 -65 54 vhcurveto
            -195 56 rlineto
            44 -3 42 return
          </CharString>
          <CharString index="222">
            -99 -62 rlineto
            -20 16 -8 19 19 vvcurveto
            39 33 37 54 72 47 -66 -155 116 vhcurveto
            37 26 return
          </CharString>
          <CharString index="223">
            -74 callsubr
            hintmask 11011000
            -6 32 rlineto
            return
          </CharString>
          <CharString index="224">
            -35 -53 -20 -106 -3 return
          </CharString>
          <CharString index="225">
            218 callgsubr
            -47 return
          </CharString>
          <CharString index="226">
            198 535 rmoveto
            69 69 37 58 -45 vhcurveto
            17 -22 8 -43 -40 vvcurveto
            -37 -7 -35 -13 -33 vhcurveto
            -92 51 261 callsubr
            return
          </CharString>
          <CharString index="227">
            53.5 433.5 164 -61 61 -61 66 return
          </CharString>
          <CharString index="228">
            51 callsubr
            -146 hlineto
            -75 48 -65 60 -39 vhcurveto
            return
          </CharString>
          <CharString index="229">
            137 callsubr
            123 return
          </CharString>
          <CharString index="230">
            26 -23 -24 10 -26 hhcurveto
            -57 -35 -47 -49 -51 38 -55 81 -53 hvcurveto
            24 29 rlineto
            -60 37 -29 43 39 vvcurveto
            34 22 20 29 15 12 -5 -15 13 vhcurveto
            -8 -26 -1 -31 7 -32 return
          </CharString>
          <CharString index="231">
            -47 hlineto
            91 -41 rlineto
            return
          </CharString>
          <CharString index="232">
            -118 -75 rlineto
            293 vlineto
            123 -296 181 callsubr
            -73 -11 -56 21 -32 24 rrcurveto
            269 vlineto
            28 42 42 22 39 hhcurveto
            endchar
          </CharString>
          <CharString index="233">
            -160 vlineto
            -7 callsubr
            rlineto
            return
          </CharString>
          <CharString index="234">
            -107 callsubr
            105 hlineto
            -19 -25 -9 -29 -31 vvcurveto
            -80 63 -97 110 -104 vhcurveto
            return
          </CharString>
          <CharString index="235">
            -296 -21 rmoveto
            -48 18 -39 58 74 vvcurveto
            81 46 67 61 43 return
          </CharString>
          <CharString index="236">
            -68 -78 -47 -100 -65 69 -106 135 return
          </CharString>
          <CharString index="237">
            hhcurveto
            -46 -45 -30 -38 -35 hvcurveto
            return
          </CharString>
          <CharString index="238">
            -152 hlineto
            -104 50 return
          </CharString>
          <CharString index="239">
            75 150 callgsubr
            return
          </CharString>
          <CharString index="240">
            17 -97 -110 -71 -89 52 rrcurveto
            return
          </CharString>
          <CharString index="241">
            -22 34 -9 25 25 vvcurveto
            49 35 40 55 23 25 -7 -17 23 vhcurveto
            15 40 rlineto
            22 -23 -30 26 -54 hhcurveto
            -77 -48 -54 -61 -44 25 -48 55 -32 hvcurveto
            endchar
          </CharString>
          <CharString index="242">
            81 74 70 hstemhm
            return
          </CharString>
          <CharString index="243">
            -51 -41 22 35 -19 hvcurveto
            216 vlineto
            204 -241 rlineto
            return
          </CharString>
          <CharString index="244">
            91 callgsubr
            131 -94 return
          </CharString>
          <CharString index="245">
            -533 -92 callsubr
            return
          </CharString>
          <CharString index="246">
            105 54 rlineto
            64 -17 31 -56 -50 vvcurveto
            -67 -55 -42 -67 -93 -77 82 124 -58 vhcurveto
            -46 -28 rlineto
            -212 101 108 -48 84 hhcurveto
            105 75 74 93 return
          </CharString>
          <CharString index="247">
            vvcurveto
            -54 42 205 callgsubr
            23 -18 28 -16 31 -10 -121 -89 rcurveline
            63 -50 return
          </CharString>
          <CharString index="248">
            218 callsubr
            117 callsubr
            hvcurveto
            -13 return
          </CharString>
          <CharString index="249">
            369 -114 -103 hlineto
            -148 -68 -92 -91 return
          </CharString>
          <CharString index="250">
            572 599 -44 45 -574 -600 rlineto
            return
          </CharString>
          <CharString index="251">
            83 198 74 119 83 return
          </CharString>
          <CharString index="252">
            -29 -21 69 70 83 76 -71 337 callsubr
            25 79 70 hstemhm
            40 75 12 83 168 80 152 72 234 219 callgsubr
            return
          </CharString>
          <CharString index="253">
            -40 -24 -27 -43 -42 143 callgsubr
            -60 vlineto
            342 callsubr
            303 vlineto
            96 54 65 104 111 vvcurveto
            return
          </CharString>
          <CharString index="254">
            162 473 rmoveto
            79 80 43 63 -44 vhcurveto
            22 -48 -9 -71 -99 -60 rrcurveto
            -36 27 -21 34 40 vvcurveto
            -75 29 rmoveto
            -55 35 -52 55 -45 vhcurveto
            return
          </CharString>
          <CharString index="255">
            70 -35 58 356 callgsubr
            121 77 108 81 return
          </CharString>
          <CharString index="256">
            259 vlineto
            173 15 rlineto
            54 -26 24 -50 -58 vvcurveto
            return
          </CharString>
          <CharString index="257">
            -46 58 -65 15 -57 -14 -37 -29 rlinecurve
            return
          </CharString>
          <CharString index="258">
            70 -40 63 hstemhm
            76 77 147 66 return
          </CharString>
          <CharString index="259">
            83 callsubr
            -1 17 return
          </CharString>
          <CharString index="260">
            293 callsubr
            86 83 vstem
            return
          </CharString>
          <CharString index="261">
            -157 hlineto
            -135 65 return
          </CharString>
          <CharString index="262">
            76 501 rmoveto
            -57 38 -57 58 -45 vhcurveto
            -159 -104 56 -60 176 119 48 -24 54 -17 56 -6 rlinecurve
            -232 -169 59 -59 return
          </CharString>
          <CharString index="263">
            -33 -25 -21 -37 -50 vvcurveto
            -149 187 -90 183 -39 vhcurveto
            21 49 rlineto
            -152 36 -157 61 110 vvcurveto
            79 83 21 74 vhcurveto
            return
          </CharString>
          <CharString index="264">
            43 -13 28 -40 -42 vvcurveto
            -53 -44 -42 -63 -70 -59 52 92 -62 vhcurveto
            -40 -32 rlineto
            -141 91 97 -43 69 hhcurveto
            74 67 48 72 11 hvcurveto
            return
          </CharString>
          <CharString index="265">
            44 -13 29 -40 -42 vvcurveto
            -53 -45 -42 -67 -78 -55 59 85 -57 vhcurveto
            -38 -32 rlineto
            -141 91 97 -43 69 hhcurveto
            75 67 49 74 11 hvcurveto
            return
          </CharString>
          <CharString index="266">
            87 189 -39 vlineto
            -283 -208 64 -52 219 170 rlineto
            endchar
          </CharString>
          <CharString index="267">
            rmoveto
            -37 callgsubr
            return
          </CharString>
          <CharString index="268">
            9 -5 10 -5 9 -3 rrcurveto
            -46 -18 -39 -37 -55 vvcurveto
            -78 81 -65 96 return
          </CharString>
          <CharString index="269">
            70 -35 58 139 callgsubr
            return
          </CharString>
          <CharString index="270">
            hhcurveto
            151 107 115 154 140 -89 119 -133 -28 hvcurveto
            return
          </CharString>
          <CharString index="271">
            -289 hlineto
            -54 -91 -125 -37 -64 37 return
          </CharString>
          <CharString index="272">
            -106 73 -80 80 83 vvcurveto
            66 49 30 45 return
          </CharString>
          <CharString index="273">
            16 -19 59 -10 37 7 rlinecurve
            return
          </CharString>
          <CharString index="274">
            77 235 callsubr
            return
          </CharString>
          <CharString index="275">
            -83 81 -29 -104 -85 hhcurveto
            return
          </CharString>
          <CharString index="276">
            -3 28 rlineto
            -105 hlineto
            -23 return
          </CharString>
          <CharString index="277">
            -81 callsubr
            -133 278 callgsubr
            return
          </CharString>
          <CharString index="278">
            -83 87 -64 86 49 51 21 41 45 vhcurveto
            -42 68 rlineto
            -35 -40 -59 -28 -51 hhcurveto
            -41 -27 18 30 57 95 38 77 13 hvcurveto
            return
          </CharString>
          <CharString index="279">
            rmoveto
            -56 37 -58 57 -47 vhcurveto
            -157 -102 56 -60 171 115 return
          </CharString>
          <CharString index="280">
            5 6 -19 hvcurveto
            55 callgsubr
            return
          </CharString>
          <CharString index="281">
            80 46 46 21 38 43 vhcurveto
            -39 66 rlineto
            -32 -36 -54 -26 -47 hhcurveto
            return
          </CharString>
          <CharString index="282">
            496 -100 callgsubr
            -125 -107 callsubr
            -36 -62 rmoveto
            52 callgsubr
            return
          </CharString>
          <CharString index="283">
            -66 callsubr
            endchar
          </CharString>
          <CharString index="284">
            -106 27 -118 -66 -111 vvcurveto
            -65 40 -57 52 -35 vhcurveto
            35 -23 37 -11 35 -5 -149 -108 rcurveline
            59 -48 return
          </CharString>
          <CharString index="285">
            6 48 -14 6 -20 4 -21 4 rlinecurve
            123 vlineto
            78 12 rlineto
            return
          </CharString>
          <CharString index="286">
            -141 -55 -72 -78 -91 75 -101 109 -104 hvcurveto
            37 35 rlineto
            return
          </CharString>
          <CharString index="287">
            293 318 rmoveto
            -23 -30 2 5 -32 hvcurveto
            return
          </CharString>
          <CharString index="288">
            rmoveto
            74 49 -83 -90 -72 -31 -75 -54 -33 hvcurveto
            return
          </CharString>
          <CharString index="289">
            25 38 6 23 290 callsubr
            return
          </CharString>
          <CharString index="290">
            vlineto
            -102 callsubr
            259 vlineto
            return
          </CharString>
          <CharString index="291">
            -160 hlineto
            110 callsubr
            return
          </CharString>
          <CharString index="292">
            -27 -26 -13 -34 -30 vvcurveto
            -54 return
          </CharString>
          <CharString index="293">
            102 0 53 148 61 return
          </CharString>
          <CharString index="294">
            -28 36 51 -25 51 hhcurveto
            return
          </CharString>
          <CharString index="295">
            -134 -31 -58 -45 return
          </CharString>
          <CharString index="296">
            71 59 45 40 return
          </CharString>
          <CharString index="297">
            -192 rmoveto
            -8 11 -6 17 18 vvcurveto
            71 91 46 111 1 vhcurveto
            -92 vlineto
            216 callgsubr
            return
          </CharString>
          <CharString index="298">
            332 callgsubr
            26 -12 -31 29 vhcurveto
            -12 -28 -9 -33 -2 -38 59 -48 rcurveline
            return
          </CharString>
          <CharString index="299">
            -59 -80 -132 -40 -79 38 rrcurveto
            -22 18 -14 29 34 vvcurveto
            return
          </CharString>
          <CharString index="300">
            54 -42 35 82 66 hhcurveto
            30 27 -17 -18 28 hvcurveto
            -42 vlineto
            return
          </CharString>
          <CharString index="301">
            -105 callsubr
            -276 -107 callsubr
            82 return
          </CharString>
          <CharString index="302">
            58 83 201 83 return
          </CharString>
          <CharString index="303">
            rmoveto
            70 callsubr
            257 callsubr
            return
          </CharString>
          <CharString index="304">
            -41 callgsubr
            -423 vlineto
            -83 -20 -42 -86 -29 vhcurveto
            13 -45 rlineto
            141 34 41 73 42 vvcurveto
            return
          </CharString>
          <CharString index="305">
            310 hlineto
            30 -20 13 -29 -30 vvcurveto
            -42 -26 -35 -58 -24 vhcurveto
            -35 -35 -11 -25 -32 hvcurveto
            44 -80 rlineto
            return
          </CharString>
          <CharString index="306">
            vlineto
            -82 callgsubr
            endchar
          </CharString>
          <CharString index="307">
            81 -64 64 -50 45 -45 63 51 70 hstemhm
            return
          </CharString>
          <CharString index="308">
            217 callgsubr
            250 vlineto
            return
          </CharString>
          <CharString index="309">
            67 38 52 65 30 27 -11 -21 25 vhcurveto
            return
          </CharString>
          <CharString index="310">
            294 -74 callsubr
            return
          </CharString>
          <CharString index="311">
            157 -101 callsubr
            return
          </CharString>
          <CharString index="312">
            -27 callsubr
            49 -20 191 71 -54 78 hstemhm
            -403 79 395 47 -28 83 hintmask 11010010
            return
          </CharString>
          <CharString index="313">
            472 5 -97 callgsubr
            return
          </CharString>
          <CharString index="314">
            rmoveto
            -94 callgsubr
            240 -151 hlineto
            14 -22 -24 8 -25 130 callsubr
            endchar
          </CharString>
          <CharString index="315">
            -67 71 246 callgsubr
            return
          </CharString>
          <CharString index="316">
            -107 callsubr
            189 -160 hlineto
            -19 -3 return
          </CharString>
          <CharString index="317">
            -47 vlineto
            -133 -57 -70 -70 -89 90 -100 141 hvcurveto
            return
          </CharString>
          <CharString index="318">
            37 callsubr
            133 vlineto
            -43 36 rlineto
            return
          </CharString>
          <CharString index="319">
            -119 -114 -63 -118 hvcurveto
            return
          </CharString>
          <CharString index="320">
            49 -31 19 6 rlineto
            298 vlineto
            return
          </CharString>
          <CharString index="321">
            287 502 rmoveto
            -41 36 rlineto
            return
          </CharString>
          <CharString index="322">
            48 19 57 -15 46 -45 rrcurveto
            return
          </CharString>
          <CharString index="323">
            hlineto
            -5 209 -94 callgsubr
            return
          </CharString>
          <CharString index="324">
            4 callgsubr
            vstem
            return
          </CharString>
          <CharString index="325">
            101 53 -4 -34 return
          </CharString>
          <CharString index="326">
            68 258 callsubr
            143.5 249 callsubr
            295 217 callsubr
            return
          </CharString>
          <CharString index="327">
            249 -254 50 40 rlineto
            28 vlineto
            -159 123 11 11 11 11 10 12 rlinecurve
            317 return
          </CharString>
          <CharString index="328">
            -38 44 16 71 46 25 rrcurveto
            -10 24 24 -6 23 hhcurveto
            35 31 13 22 26 hvcurveto
            -109 vlineto
            return
          </CharString>
          <CharString index="329">
            rmoveto
            -94 callgsubr
            264 -247 -216 hlineto
            endchar
          </CharString>
          <CharString index="330">
            -27 callsubr
            49 -20 191 71 -67 78 hstemhm
            -267 78 279 83 hintmask 11010100
            return
          </CharString>
          <CharString index="331">
            40 -8 36 -14 31 vhcurveto
            102 hlineto
            149 callgsubr
            return
          </CharString>
          <CharString index="332">
            41 285 callgsubr
            85 69 -52 71 -19 63 192 78 -74 68 -24 73 return
          </CharString>
          <CharString index="333">
            -159 121 rlineto
            109 32 65 79 82 vvcurveto
            return
          </CharString>
          <CharString index="334">
            -101 callsubr
            192 -103 callsubr
            return
          </CharString>
          <CharString index="335">
            -101 callsubr
            384 -103 callsubr
            return
          </CharString>
          <CharString index="336">
            58 -47 109 132 124 -133 41 43 return
          </CharString>
          <CharString index="337">
            97 230 vlineto
            -22 76 rlineto
            -213 150 hlineto
            return
          </CharString>
          <CharString index="338">
            152 callsubr
            rlineto
            return
          </CharString>
          <CharString index="339">
            223 callgsubr
            43 78 221 83 return
          </CharString>
          <CharString index="340">
            -176 hlineto
            -72 47 -71 52 -38 vhcurveto
            return
          </CharString>
          <CharString index="341">
            66.5 return
          </CharString>
          <CharString index="342">
            136 70 hstemhm
            return
          </CharString>
          <CharString index="343">
            148 252 callgsubr
            return
          </CharString>
          <CharString index="344">
            -34 48 32 callsubr
            return
          </CharString>
          <CharString index="345">
            70 153 37 callgsubr
            64 callsubr
            return
          </CharString>
          <CharString index="346">
            3 callsubr
            endchar
          </CharString>
          <CharString index="347">
            hstemhm
            115 93 return
          </CharString>
          <CharString index="348">
            -59 callsubr
            155 callgsubr
            -97 11 rlineto
            713 return
          </CharString>
          <CharString index="349">
            hlineto
            98 callgsubr
            return
          </CharString>
          <CharString index="350">
            76 227 70 hstem
            152 80.5 223.5 83 vstem
            return
          </CharString>
          <CharString index="351">
            18 -21 97 68 165 82 129 70 hstem
            return
          </CharString>
          <CharString index="352">
            vlineto
            31 -46 48 -48 37 -23 48 20 rcurveline
            97 return
          </CharString>
          <CharString index="353">
            76 258 callgsubr
            return
          </CharString>
          <CharString index="354">
            181 167 callsubr
            return
          </CharString>
          <CharString index="355">
            69 -93 110 -105 return
          </CharString>
          <CharString index="356">
            81.5 return
          </CharString>
          <CharString index="357">
            rlineto
            -339 62 callsubr
            return
          </CharString>
          <CharString index="358">
            74 -72 88 -89 -76 -53 -63 -67 vhcurveto
            77 -23 rmoveto
            82 93 38 48 -57 vhcurveto
            return
          </CharString>
          <CharString index="359">
            173 callsubr
            endchar
          </CharString>
          <CharString index="360">
            144 callsubr
            vstem
            return
          </CharString>
          <CharString index="361">
            -185 121 106 -52 97 hhcurveto
            return
          </CharString>
          <CharString index="362">
            vvcurveto
            -101 118 -84 125 vhcurveto
            return
          </CharString>
          <CharString index="363">
            -576 -107 callsubr
            return
          </CharString>
          <CharString index="364">
            1 9 9 1 10 hhcurveto
            return
          </CharString>
          <CharString index="365">
            376 70 hstem
            return
          </CharString>
          <CharString index="366">
            70 -35 58 hstemhm
            return
          </CharString>
          <CharString index="367">
            -53 -15 82 357 66 -15 -20 205 75 hstemhm
            20 94 241 89 return
          </CharString>
          <CharString index="368">
            -40 46 52 vvcurveto
            -80 -126 rmoveto
            150 callsubr
            return
          </CharString>
          <CharString index="369">
            -30 -26 -14 -37 -33 vvcurveto
            -96 111 -80 84 30 31 10 18 25 vhcurveto
            return
          </CharString>
          <CharString index="370">
            54 -33 56 -65 51 vhcurveto
            82 vlineto
            -32 28 rlineto
            95 16 56 65 74 vvcurveto
            return
          </CharString>
          <CharString index="371">
            25 -14 25 -9 24 -5 -121 -66 rcurveline
            return
          </CharString>
          <CharString index="372">
            -296 0 64 596 75 hstem
            102 89 return
          </CharString>
          <CharString index="373">
            46 239 40 hstem
            176 65 vstem
            71 return
          </CharString>
          <CharString index="374">
            70 356 callgsubr
            return
          </CharString>
          <CharString index="375">
            83 112 135 callsubr
            54 73 -44 78 207 78 hintmask 11111011
            return
          </CharString>
          <CharString index="376">
            45 182 274 callsubr
            hstemhm
            -24 78 167 328 callsubr
            return
          </CharString>
          <CharString index="377">
            88 hhcurveto
            33 -42 callgsubr
            -126 vlineto
            -102 callsubr
            return
          </CharString>
          <CharString index="378">
            233 callsubr
            24 -17 23 -10 24 -5 rrcurveto
            return
          </CharString>
          <CharString index="379">
            55 callgsubr
            13 21 -46 58 return
          </CharString>
          <CharString index="380">
            24 29 14 24 27 vvcurveto
            45 -38 49 -56 -30 -25 -14 -23 -18 vhcurveto
            return
          </CharString>
          <CharString index="381">
            83 126 70 return
          </CharString>
          <CharString index="382">
            -110 27 -113 -68 -113 vvcurveto
            -72 46 -60 56 -35 vhcurveto
            return
          </CharString>
          <CharString index="383">
            70 hstemhm
            59 77 -36 68 164 83 -78 71 29 69 -55 76 return
          </CharString>
          <CharString index="384">
            48 20 rcurveline
            230 callsubr
            return
          </CharString>
          <CharString index="385">
            0 111 callsubr
            546 51.5 -32 32 return
          </CharString>
          <CharString index="386">
            -6 32 rlineto
            -217 hlineto
            -1 -47 70 -8 -247 -265 rlineto
            return
          </CharString>
          <CharString index="387">
            167 callsubr
            43 82 -6 77 return
          </CharString>
          <CharString index="388">
            -233 -111 -179 -180 hvcurveto
            return
          </CharString>
          <CharString index="389">
            24 -42 130 callsubr
            return
          </CharString>
          <CharString index="390">
            -71 70 -65 68 33 35 15 23 29 return
          </CharString>
          <CharString index="391">
            hhcurveto
            24 23 3 6 20 hvcurveto
            return
          </CharString>
          <CharString index="392">
            hhcurveto
            -47 -50 -23 -47 -33 hvcurveto
            return
          </CharString>
          <CharString index="393">
            hlineto
            -92 -94 -61 -128 hvcurveto
            return
          </CharString>
          <CharString index="394">
            rmoveto
            86 92 37 49 -57 vhcurveto
            return
          </CharString>
          <CharString index="395">
            -20 28 80 hstemhm
            83 89 return
          </CharString>
          <CharString index="396">
            142 83 192 83 return
          </CharString>
          <CharString index="397">
            rlinecurve
            -90 107 -66 -32 return
          </CharString>
          <CharString index="398">
            70 hstem
            189 83 return
          </CharString>
          <CharString index="399">
            78 -68 87 -94 vhcurveto
            return
          </CharString>
          <CharString index="400">
            70 hstem
            332 76 return
          </CharString>
          <CharString index="401">
            565 18 221 72 -67 87 hstemhm
            -206 50 hintmask 10110000
            return
          </CharString>
          <CharString index="402">
            vvcurveto
            95 -101 callsubr
            149 -103 callsubr
            return
          </CharString>
          <CharString index="403">
            82 -72 45 130 129 hhcurveto
            55 41 -23 -50 57 hvcurveto
            return
          </CharString>
          <CharString index="404">
            rmoveto
            -28 25 -19 39 -11 39 rrcurveto
            -65 callgsubr
            return
          </CharString>
          <CharString index="405">
            189 callsubr
            47 hhcurveto
            37 24 -25 -22 11 hvcurveto
            3 -6 return
          </CharString>
          <CharString index="406">
            -37 hvcurveto
            -37 33 -20 40 43 vvcurveto
            69 53 53 109 vhcurveto
            return
          </CharString>
          <CharString index="407">
            43 30 14 37 35 vvcurveto
            43 -21 35 -29 25 vhcurveto
            endchar
          </CharString>
          <CharString index="408">
            -49 -64 -85 -31 -64 38 rrcurveto
            endchar
          </CharString>
          <CharString index="409">
            -141 -64 -82 return
          </CharString>
          <CharString index="410">
            71 134 73 29 78 -30 73 7 58 hintmask 0111110101000000
            return
          </CharString>
          <CharString index="411">
            29 callsubr
            26 29 -9 return
          </CharString>
          <CharString index="412">
            302 callsubr
            -86 -115 114 -93 106 -26 hvcurveto
            return
          </CharString>
          <CharString index="413">
            vvcurveto
            -125 137 -87 105 42 48 14 28 36 vhcurveto
            return
          </CharString>
          <CharString index="414">
            37 35 rlineto
            354 callgsubr
            return
          </CharString>
          <CharString index="415">
            0 callgsubr
            73 hlineto
            return
          </CharString>
          <CharString index="416">
            69 -45 71 -73 23 vhcurveto
            91 -101 callsubr
            endchar
          </CharString>
          <CharString index="417">
            -107 callsubr
            hintmask 11111010
            return
          </CharString>
          <CharString index="418">
            -442 -107 callsubr
            return
          </CharString>
          <CharString index="419">
            85 70 hstemhm
            65 53 237 70 return
          </CharString>
          <CharString index="420">
            -54 hhcurveto
            -45 -53 -22 -47 -48 hvcurveto
            return
          </CharString>
          <CharString index="421">
            69 -61 70 167 77 -27 77 return
          </CharString>
          <CharString index="422">
            352 -101 callsubr
            235 return
          </CharString>
          <CharString index="423">
            hhcurveto
            69 66 48 82 return
          </CharString>
          <CharString index="424">
            -126 -90 hlineto
            return
          </CharString>
          <CharString index="425">
            -78 -49 -88 -52 -102 hhcurveto
            -32 -20 5 6 -19 hvcurveto
            return
          </CharString>
          <CharString index="426">
            6 22 -31 hvcurveto
            81 -72 47 131 123 hhcurveto
            return
          </CharString>
          <CharString index="427">
            18 -21 329 72 140 70 hstem
            114 76 return
          </CharString>
          <CharString index="428">
            -27 14 -14 22 23 vvcurveto
            20 12 20 23 12 vhcurveto
            return
          </CharString>
          <CharString index="429">
            383 rmoveto
            23 -59 38 -63 39 -37 48 19 rcurveline
            return
          </CharString>
          <CharString index="430">
            93 callgsubr
            -156 hlineto
            -118 return
          </CharString>
          <CharString index="431">
            -102 callsubr
            250 vlineto
            189 callsubr
            return
          </CharString>
          <CharString index="432">
            48 96 41 112 38 return
          </CharString>
          <CharString index="433">
            260 callgsubr
            107 83 return
          </CharString>
          <CharString index="434">
            -38 31 -18 39 38 vvcurveto
            return
          </CharString>
          <CharString index="435">
            80 215 83 return
          </CharString>
          <CharString index="436">
            -9 rlineto
            -531 vlineto
            -54 callgsubr
            return
          </CharString>
          <CharString index="437">
            164 callsubr
            rrcurveto
            return
          </CharString>
          <CharString index="438">
            258 callsubr
            200 217 callsubr
            return
          </CharString>
          <CharString index="439">
            35 270 -20 34 -20 26 -20 hstemhm
            79 63 return
          </CharString>
          <CharString index="440">
            94 68 258 callsubr
            61 260 callgsubr
            return
          </CharString>
          <CharString index="441">
            281 callgsubr
            endchar
          </CharString>
          <CharString index="442">
            20 vvcurveto
            36 32 27 79 vhcurveto
            return
          </CharString>
          <CharString index="443">
            5 21 290 callsubr
            return
          </CharString>
          <CharString index="444">
            79 112 81 -64 64 -50 return
          </CharString>
          <CharString index="445">
            84 200 83 232 65 return
          </CharString>
          <CharString index="446">
            -119 120 -108 99 return
          </CharString>
          <CharString index="447">
            240 callsubr
            251 102 return
          </CharString>
          <CharString index="448">
            rmoveto
            -42 -37 18 38 -20 hvcurveto
            return
          </CharString>
          <CharString index="449">
            54 -30 19 8 rlineto
            return
          </CharString>
          <CharString index="450">
            69.5 return
          </CharString>
          <CharString index="451">
            11 -21 113 68 return
          </CharString>
          <CharString index="452">
            -81 -50 -64 -65 hvcurveto
            return
          </CharString>
          <CharString index="453">
            76 68 39 70 return
          </CharString>
          <CharString index="454">
            373 -94 -96 hlineto
            -158 -72 -84 -85 return
          </CharString>
          <CharString index="455">
            5 -21 138 120 147 70 hstem
            return
          </CharString>
          <CharString index="456">
            -31 -31 -17 -42 -48 vvcurveto
            -140 142 return
          </CharString>
          <CharString index="457">
            1 rlineto
            43 -17 23 -36 -33 vvcurveto
            -40 -34 return
          </CharString>
          <CharString index="458">
            78 221 83 379 4 callgsubr
            return
          </CharString>
          <CharString index="459">
            vlineto
            295 -302 55 52 -1 17 rlineto
            return
          </CharString>
          <CharString index="460">
            135 76 327 70 hstem
            68 83 vstem
            return
          </CharString>
          <CharString index="461">
            2 -21 -34 25 -51 34 -37 43 -27 rlinecurve
            return
          </CharString>
          <CharString index="462">
            255 callgsubr
            endchar
          </CharString>
          <CharString index="463">
            48 20 rlineto
            97 return
          </CharString>
          <CharString index="464">
            rlinecurve
            48 20 rlineto
            return
          </CharString>
        <CharString name=".notdef">
          -82 23 66 304 65 hstem
          47 58 304 56 vstem
          47 23 rmoveto
          418 435 -418 hlineto
          58 -65 rmoveto
          304 -304 -304 hlineto
          endchar
        </CharString>
        <CharString name="A">
          186 callsubr
          hstem
          -20 716 -93 callsubr
          73 -412 51 callgsubr
        </CharString>
        <CharString name="AE">
          315 0 111 callsubr
          -52.5 70 -70 181 20 61 27 73.5 218 343 callsubr
          -49.5 49.5 hstemhm
          461 93 hintmask 01010101
          337 650 rmoveto
          hintmask 01010011
          -1 -48 55 -3 -287 -530 -17 -5 -54 -17 -23 -12 rlinecurve
          6 -35 rlineto
          258 hlineto
          hintmask 10010101
          1 47 -97 11 75 144 rlineto
          -1 208 vlineto
          hintmask 01010101
          -135 vlineto
          -22 -7 -43 -14 -20 -10 6 -35 rcurveline
          466 hlineto
          hintmask 00110101
          8 43 6 83 -2 53 -53 4 rcurveline
          hintmask 01011101
          -26 -108 -227 -10 rlineto
          229 vlineto
          229 -10 rlineto
          87 vlineto
          -229 -17 rlineto
          231 vlineto
          218 -9 12 -91 rlineto
          54 hlineto
          11 61 2 71 -3 33 rrcurveto
          hintmask 01010011
          -387 -388 rmoveto
          -176 hlineto
          176 335 rlineto
          endchar
        </CharString>
        <CharString name="Aacute">
          186 callsubr
          hstem
          -20 716 -93 callsubr
          -110 18 -52 callsubr
          218 -487 51 callgsubr
        </CharString>
        <CharString name="Abreve">
          186 callsubr
          440 68 hstem
          405 75 -93 callsubr
          36 177 86 callgsubr
          -38 -581 51 callgsubr
        </CharString>
        <CharString name="Acircumflex">
          186 callsubr
          539 72 hstem
          -20 716 -93 callsubr
          -176 22 rmoveto
          11 callgsubr
          293 -476 51 callgsubr
        </CharString>
        <CharString name="Adieresis">
          186 callsubr
          hstem
          -20 716 -93 callsubr
          -140 185 -99 callgsubr
          10 -597 51 callgsubr
        </CharString>
        <CharString name="Agrave">
          186 callsubr
          hstem
          -20 716 -93 callsubr
          -117 200 86 callsubr
          -35 -487 51 callgsubr
        </CharString>
        <CharString name="Amacron">
          186 callsubr
          480 69 hstem
          -20 716 -93 callsubr
          -221 112 36 callgsubr
          294 -524 51 callgsubr
        </CharString>
        <CharString name="Aogonek">
          102 -254 68 186 53 148 61 hstem
          436 73 vstem
          290 647 rmoveto
          7 -18 -234 -567 -29 -9 -29 -9 -25 235 callgsubr
          258 hlineto
          1 47 -105 12 56 142 rlineto
          270 hlineto
          53 -134 -32 -10 -36 -11 -30 -14 rlinecurve
          6 -32 rlineto
          130 160 callgsubr
          67 hlineto
          1 47 -73 8 -254 619 rlineto
          73 -412 51 callgsubr
        </CharString>
        <CharString name="Aring">
          186 callsubr
          449 41 115 61 hstem
          226 51 115 51 -93 callsubr
          -31 37 -68 callsubr
          107 -605 51 callgsubr
        </CharString>
        <CharString name="Atilde">
          186 callsubr
          522 78 hstem
          -20 716 -93 callsubr
          -202 47 -62 callsubr
          311 -487 51 callgsubr
        </CharString>
        <CharString name="B">
          25 0 65 249 54 -54 344 -74 74 -59 59 240 callsubr
          238 103 -73 108 hintmask 10100101
          45 650 rmoveto
          hintmask 11001101
          71 callgsubr
          282 hlineto
          180 86 84 95 80 -62 75 -116 13 hvcurveto
          hintmask 11000110
          100 11 43 67 67 vvcurveto
          hintmask 10100110
          85 -69 81 -174 vhcurveto
          hintmask 10100101
          -82 -96 -4 -4 -83 hvcurveto
          hintmask 11001110
          300 -51 rmoveto
          59 -10 42 -51 -53 vvcurveto
          -59 -51 -58 -137 vhcurveto
          -50 hlineto
          hintmask 10010101
          216 vlineto
          100 -523 rmoveto
          -100 8 rlineto
          hintmask 10100101
          245 98 vlineto
          112 58 -71 -66 hvcurveto
          hintmask 10010101
          -65 -54 -60 -114 9 vhcurveto
          endchar
        </CharString>
        <CharString name="C">
          -41 -15 83 529 73 -63 callgsubr
          -175 102 -159 220 2 hvcurveto
          196 88 rlineto
          endchar
        </CharString>
        <CharString name="Cacute">
          -41 -15 83 529 73 -63 callgsubr
          -175 102 -159 220 2 hvcurveto
          196 88 rlineto
          -294 619 -52 callsubr
          endchar
        </CharString>
        <CharString name="Ccaron">
          -41 -15 83 529 73 34 65 -63 callgsubr
          -175 102 -159 220 2 hvcurveto
          196 88 rlineto
          -396 737 rmoveto
          -40 callgsubr
        </CharString>
        <CharString name="Ccedilla">
          -41 188 callgsubr
          68 -21 609 73 -63 callgsubr
          -161 86 -147 185 -21 hvcurveto
          -47 -54 -61 callsubr
          29 44 195 88 rlineto
          endchar
        </CharString>
        <CharString name="D">
          61 0 66 525.5 66.5 14 callsubr
          endchar
        </CharString>
        <CharString name="Dcaron">
          61 0 66 525.5 234 callsubr
          46 65 14 callsubr
          -176 744 rmoveto
          -40 callgsubr
        </CharString>
        <CharString name="Dcroat">
          -25 callgsubr
        </CharString>
        <CharString name="E">
          -91 callsubr
          endchar
        </CharString>
        <CharString name="Eacute">
          -91 callsubr
          185 660 -52 callsubr
          endchar
        </CharString>
        <CharString name="Ecaron">
          -31 0 70 -70 181 108 73.5 222 65.5 -50 50 54 65 19 callgsubr
          83 778 rmoveto
          hintmask 10101110
          -40 callgsubr
        </CharString>
        <CharString name="Ecircumflex">
          -31 0 70 -70 181 108 73.5 222 65.5 -50 50 151 72 19 callgsubr
          119 664 rmoveto
          hintmask 10101110
          11 callgsubr
          endchar
        </CharString>
        <CharString name="Edieresis">
          -91 callsubr
          155 827 -99 callgsubr
          endchar
        </CharString>
        <CharString name="Edotaccent">
          -91 callsubr
          255 827 -70 callsubr
        </CharString>
        <CharString name="Egrave">
          -91 callsubr
          178 842 86 callsubr
          endchar
        </CharString>
        <CharString name="Emacron">
          -31 0 70 -70 181 108 73.5 222 65.5 -50 50 92 69 240 callsubr
          hintmask 10101110
          30 32 rmoveto
          6 -32 rlineto
          466 hlineto
          hintmask 01101110
          8 43 6 83 -2 53 -53 4 rcurveline
          hintmask 10110110
          -26 -108 -227 -10 rlineto
          229 vlineto
          229 -10 rlineto
          87 vlineto
          -229 -17 rlineto
          238 vlineto
          218 -15 12 -92 rlineto
          54 hlineto
          hintmask 10101110
          11 61 2 71 -3 33 rrcurveto
          -457 hlineto
          -1 -48 71 -4 rlineto
          -535 215 callgsubr
          74 754 36 callgsubr
          endchar
        </CharString>
        <CharString name="Eogonek">
          -31 -254 68 186 70 219 73.5 222 65.5 -50 50 240 callsubr
          102 73 hintmask 11101110
          30 32 rmoveto
          6 -32 rlineto
          395 160 callgsubr
          8 43 6 83 -2 53 -53 4 rcurveline
          -26 -108 -227 -10 rlineto
          229 vlineto
          229 -10 rlineto
          87 vlineto
          -229 -17 rlineto
          hintmask 11110110
          238 vlineto
          218 -15 12 -92 rlineto
          54 hlineto
          hintmask 11101110
          11 61 2 71 -3 33 rrcurveto
          -457 hlineto
          -1 -48 71 -4 rlineto
          -535 215 callgsubr
          endchar
        </CharString>
        <CharString name="Eth">
          -25 callgsubr
        </CharString>
        <CharString name="Euro">
          3 -20 83 146 55 92 55 201 58 hstem
          84 102 309 77 vstem
          554 105 rmoveto
          -145 -42 -120 6 -62 59 -26 81 rlinecurve
          251 hlineto
          34 36 -6 19 rlineto
          -291 hlineto
          -2 17 -1 18 18 vvcurveto
          13 1 13 1 13 vhcurveto
          305 hlineto
          33 36 -6 19 rlineto
          -325 hlineto
          19 89 44 75 64 37 57 7 58 -17 55 -33 6 -101 rcurveline
          55 hlineto
          8 31 9 59 2 51 rrcurveto
          39 -48 -60 22 -74 hhcurveto
          -174 -92 -122 -137 -30 hvcurveto
          -65 hlineto
          -34 -36 6 -19 rlineto
          85 hlineto
          -1 -15 -1 -14 -15 vvcurveto
          -16 1 -16 2 -16 vhcurveto
          -86 hlineto
          -33 -36 6 -19 rlineto
          122 hlineto
          33 -130 99 -93 159 -6 185 77 rcurveline
          endchar
        </CharString>
        <CharString name="F">
          -42 0 47 -47 61 208 73.5 242 65.5 -50 50 240 callsubr
          177 callgsubr
          288 hlineto
          1 47 rlineto
          hintmask 01110100
          -117 14 rlineto
          213 vlineto
          229 -10 rlineto
          87 vlineto
          -229 -17 rlineto
          258 vlineto
          218 -15 12 -92 rlineto
          54 hlineto
          hintmask 01101100
          11 61 2 71 -3 33 rrcurveto
          -457 hlineto
          65 callsubr
          hintmask 10101100
          -54 callgsubr
          rrcurveto
          endchar
        </CharString>
        <CharString name="G">
          173 callgsubr
          hstemhm
          15 102 354 93 -85 80 hintmask 11111000
          -24 callsubr
          hintmask 11110100
          106 callgsubr
          hintmask 11111000
          281 callsubr
          endchar
        </CharString>
        <CharString name="Gbreve">
          173 callgsubr
          32 68 hstemhm
          15 102 293 75 -14 93 -85 80 hintmask 11111010
          -24 callsubr
          hintmask 11111001
          106 callgsubr
          hintmask 11111010
          281 callsubr
          hintmask 11111100
          395 540 86 callgsubr
          endchar
        </CharString>
        <CharString name="Gcommaaccent">
          173 callgsubr
          hstemhm
          15 102 187 75 92 93 -85 80 hintmask 11111100
          -24 callsubr
          hintmask 11111010
          106 callgsubr
          hintmask 11111100
          281 callsubr
          265 -435 -83 callgsubr
        </CharString>
        <CharString name="H">
          157 0 111 callsubr
          234.5 70 241.5 -22 callgsubr
          115 93 323 93 hintmask 11101100
          455 65 callgsubr
          -237 -323 vlineto
          hintmask 11011100
          230 -74 callsubr
          hintmask 11101100
          -6 32 rlineto
          -248 hlineto
          -32 callgsubr
          155 callgsubr
          -97 11 rlineto
          229 323 -224 -48 callsubr
          155 callgsubr
          -97 11 rlineto
          hintmask 11011100
          108 callgsubr
          hintmask 11101100
          -6 32 rlineto
          endchar
        </CharString>
        <CharString name="I">
          -78 callgsubr
          endchar
        </CharString>
        <CharString name="Iacute">
          -78 callgsubr
          51 692 -52 callsubr
          endchar
        </CharString>
        <CharString name="Icircumflex">
          -259 278 callsubr
          151 72 240 callsubr
          hintmask 11001000
          304 hmoveto
          1 47 -97 11 rlineto
          hintmask 10101000
          529 116 callsubr
          -248 hlineto
          -32 callgsubr
          -15 696 rmoveto
          11 callgsubr
          endchar
        </CharString>
        <CharString name="Idieresis">
          -78 callgsubr
          21 859 -99 callgsubr
          endchar
        </CharString>
        <CharString name="Idotaccent">
          -78 callgsubr
          121 859 -70 callsubr
        </CharString>
        <CharString name="Igrave">
          -78 callgsubr
          44 874 86 callsubr
          endchar
        </CharString>
        <CharString name="Imacron">
          -233 278 callsubr
          65 69 hstemhm
          128 93 hintmask 11011000
          30 759 259 callgsubr
          248 257 callgsubr
          -183 66 callgsubr
          287 -759 rmoveto
          1 47 -97 11 rlineto
          hintmask 10111000
          529 116 callsubr
          -248 hlineto
          -32 callgsubr
          endchar
        </CharString>
        <CharString name="Iogonek">
          -259 -254 68 186 111 callsubr
          546 -22 callgsubr
          40 73 2 93 hintmask 11100100
          304 hmoveto
          1 47 -97 11 rlineto
          hintmask 11010100
          108 callgsubr
          hintmask 11100100
          -6 32 rlineto
          -248 hlineto
          -32 callgsubr
          125 hlineto
          hintmask 11101000
          168 callgsubr
          endchar
        </CharString>
        <CharString name="J">
          -247 597.5 111 callsubr
          -32 32 hstemhm
          139 93 hintmask 10100000
          43 118 callsubr
          97 -11 rlineto
          -464 vlineto
          -144 -59 -62 -84 -53 vhcurveto
          36 -51 rlineto
          99 58 101 77 128 vvcurveto
          hintmask 01100000
          506 -74 callsubr
          hintmask 10100000
          -6 32 rlineto
          endchar
        </CharString>
        <CharString name="K">
          57 0 50 -50 111 callsubr
          546 -22 callgsubr
          115 93 hintmask 01101000
          178 callgsubr
          hintmask 10011000
          241 callgsubr
          hintmask 01101000
          279 callsubr
          hintmask 01011000
          257 -74 callsubr
          hintmask 01101000
          -6 32 rlineto
          -249 hlineto
          -1 -47 78 329 callsubr
          rrcurveto
          endchar
        </CharString>
        <CharString name="Kcommaaccent">
          57 0 50 -50 111 callsubr
          546 -22 callgsubr
          115 93 122 75 hintmask 01101100
          178 callgsubr
          hintmask 10011100
          241 callgsubr
          hintmask 01101100
          279 callsubr
          hintmask 01011100
          257 -74 callsubr
          hintmask 01101100
          -6 32 rlineto
          -249 hlineto
          -1 -47 78 329 callsubr
          rrcurveto
          276 -156 -83 callgsubr
        </CharString>
        <CharString name="L">
          68 callgsubr
          -14 callgsubr
          hintmask 10101000
          -6 32 rlineto
          endchar
        </CharString>
        <CharString name="Lacute">
          68 callgsubr
          -14 callgsubr
          hintmask 10101000
          -6 32 rlineto
          -202 42 -52 callsubr
          endchar
        </CharString>
        <CharString name="Lcaron">
          68 callgsubr
          227 84 hintmask 10101100
          39 650 rmoveto
          -32 callgsubr
          486 hlineto
          hintmask 01101100
          9 48 4 89 -1 62 -56 4 rcurveline
          hintmask 10011100
          -26 -126 -244 -10 rlineto
          520 -74 callsubr
          hintmask 10101100
          -6 32 rlineto
          121 43 41 callsubr
        </CharString>
        <CharString name="Lcommaaccent">
          68 callgsubr
          29 75 -14 callgsubr
          hintmask 10101100
          -6 32 rlineto
          -74 -774 -83 callgsubr
        </CharString>
        <CharString name="Lslash">
          -30 0 72 -72 201 397.5 -22 callgsubr
          131 93 hintmask 10101000
          30 258 rmoveto
          33 -59 68 40 rlineto
          -176 212 callgsubr
          hintmask 01101000
          9 48 4 89 -1 62 -56 4 rcurveline
          hintmask 10011000
          -26 -126 -244 -10 rlineto
          226 vlineto
          150 87 11 53 -18 23 -143 -84 rlineto
          215 -74 callsubr
          hintmask 10101000
          -6 32 rlineto
          -248 hlineto
          -1 -47 77 -9 rlineto
          -277 vlineto
          endchar
        </CharString>
        <CharString name="M">
          307 0 111 callsubr
          -38.5 -21 605.5 -22 callgsubr
          128.5 73 477.5 88.5 hintmask 10101100
          60 118 callsubr
          79 -9 -19 -530 -30 -9 -32 -10 -27 -13 rlinecurve
          6 -32 rlineto
          244 hlineto
          1 47 -84 10 9 363 -19 157 rlineto
          hintmask 01101100
          211 -584 87 23 205 569 -14 -165 rlineto
          hintmask 10011100
          6 -357 -29 -9 -31 -10 -26 235 callgsubr
          155 callgsubr
          -99 11 -9 533 26 8 25 8 23 11 rlinecurve
          hintmask 10101100
          -6 32 rlineto
          -183 hlineto
          -192 -542 -195 542 rlineto
          endchar
        </CharString>
        <CharString name="N">
          -16 callsubr
          endchar
        </CharString>
        <CharString name="NULL">
          endchar
        </CharString>
        <CharString name="Nacute">
          -16 callsubr
          248 660 -52 callsubr
          endchar
        </CharString>
        <CharString name="Ncaron">
          62 callgsubr
          54 65 hstemhm
          115 75 364 76 hintmask 10100110
          35 callsubr
          hintmask 01100110
          355 -568 rlineto
          hintmask 10010110
          103 11 rlineto
          587 -74 callsubr
          hintmask 10100110
          -44 callsubr
          146 778 rmoveto
          hintmask 10101110
          -40 callgsubr
        </CharString>
        <CharString name="Ncommaaccent">
          62 callgsubr
          hstemhm
          115 75 158 75 131 76 hintmask 10101110
          35 callsubr
          hintmask 01101110
          355 -568 rlineto
          hintmask 10011110
          103 11 rlineto
          587 -74 callsubr
          hintmask 10101110
          -44 callsubr
          294 -156 -83 callgsubr
        </CharString>
        <CharString name="Ntilde">
          62 callgsubr
          134 78 hstemhm
          115 75 364 76 hintmask 10100110
          35 callsubr
          hintmask 01100110
          355 -568 rlineto
          hintmask 10010110
          103 11 rlineto
          587 -74 callsubr
          hintmask 10100110
          -44 callsubr
          hintmask 10101110
          156 689 -62 callsubr
          endchar
        </CharString>
        <CharString name="O">
          58 -20 71 550 69 -96 callsubr
          endchar
        </CharString>
        <CharString name="OE">
          309 -11 70 -59 59 -59 70 -70 181 107.5 74 218 343 callsubr
          -57 70 hstemhm
          42 102 317 93 hintmask 0100101110000000
          363 59 rmoveto
          -153 -66 132 135 100 37 102 64 47 hvcurveto
          12 33 38 6 39 hhcurveto
          37 38 -6 -11 31 hvcurveto
          -504 vlineto
          -13 -28 -35 0 -35 hhcurveto
          469 426 rmoveto
          hintmask 0010110110000000
          11 61 2 71 -3 33 rrcurveto
          -367 hlineto
          hintmask 1000101110000000
          9 -33 -34 4 -33 hhcurveto
          -148 -185 -91 -238 -245 154 -100 154 hvcurveto
          hintmask 0010110110000000
          34 35 3 8 32 hvcurveto
          391 hlineto
          hintmask 0001110110000000
          8 43 6 83 -2 53 -53 4 rcurveline
          hintmask 0010110110000000
          -26 -108 -221 -10 rlineto
          228 vlineto
          221 -9 rlineto
          87 vlineto
          -221 -17 rlineto
          231 vlineto
          212 -9 12 -91 rlineto
          endchar
        </CharString>
        <CharString name="Oacute">
          58 -20 71 550 69 -96 callsubr
          -60 91 -52 callsubr
          endchar
        </CharString>
        <CharString name="Ocircumflex">
          58 -20 71 550 69 131 72 -96 callsubr
          -126 95 rmoveto
          11 callgsubr
          endchar
        </CharString>
        <CharString name="Odieresis">
          58 -20 71 550 69 -96 callsubr
          -90 258 -99 callgsubr
          endchar
        </CharString>
        <CharString name="Ograve">
          58 -20 71 550 69 -96 callsubr
          -67 273 86 callsubr
          endchar
        </CharString>
        <CharString name="Ohungarumlaut">
          58 -20 71 550 69 -96 callsubr
          -74 112 53 callsubr
        </CharString>
        <CharString name="Omacron">
          58 -20 71 550 69 72 69 -96 callsubr
          -171 185 36 callgsubr
          endchar
        </CharString>
        <CharString name="Oslash">
          98 -20 71 -31 -21 602 69 hstemhm
          20 102 407 103 hintmask 01111000
          179 -81 rmoveto
          41 80 rlineto
          hintmask 10111000
          -13 35 37 -6 37 hhcurveto
          151 152 107 230 121 -42 93 -64 59 hvcurveto
          53 103 -60 36 -50 -97 rlineto
          25 -45 -51 13 -52 hhcurveto
          -172 -129 -140 -209 hvcurveto
          hintmask 01111000
          -140 58 -96 80 -54 vhcurveto
          -40 -78 rlineto
          191 648 rmoveto
          50 40 -15 -26 33 hvcurveto
          -233 -450 rlineto
          -53 55 -24 85 85 vvcurveto
          105 36 102 55 42 vhcurveto
          12 35 32 5 29 hhcurveto
          hintmask 10111000
          38 -550 rmoveto
          -34 -30 7 11 -26 hvcurveto
          224 434 rlineto
          32 -53 16 -69 -69 vvcurveto
          -115 -43 -96 -62 -40 vhcurveto
          -7 -28 -25 -3 -24 hhcurveto
          endchar
        </CharString>
        <CharString name="Otilde">
          58 -20 71 550 69 114 78 -96 callsubr
          -152 120 -62 callsubr
          endchar
        </CharString>
        <CharString name="P">
          -13 0 47 -47 61 184 58 288.5 232 callgsubr
          340 callsubr
          hintmask 10100111
          45 650 rmoveto
          hintmask 01101011
          65 callsubr
          hintmask 10101011
          -59 callsubr
          288 hlineto
          1 47 rlineto
          hintmask 01101011
          -117 14 rlineto
          184 125 vlineto
          334 callgsubr
          -14 -355 rmoveto
          -19 -43 3 6 -40 hvcurveto
          hintmask 10110011
          272 vlineto
          173 15 rlineto
          52 -25 26 -58 -62 vvcurveto
          hintmask 01101011
          -76 -42 -75 -107 vhcurveto
          endchar
        </CharString>
        <CharString name="Q">
          97 -20 71 550 69 hstem
          20 102 407 103 vstem
          20 321 rmoveto
          -229 155 -112 154 21 21 2 4 20 vhcurveto
          321 -148 39 98 -279 79 rlineto
          91 48 69 99 155 vvcurveto
          227 -147 126 -164 -172 -129 -140 -209 vhcurveto
          289 280 rmoveto
          151 69 -143 -146 -115 -43 -96 -62 -40 hvcurveto
          -7 -28 -25 -3 -24 hhcurveto
          -159 -66 142 142 105 36 102 55 42 hvcurveto
          12 35 32 5 29 hhcurveto
          endchar
        </CharString>
        <CharString name="R">
          -38 callgsubr
          endchar
        </CharString>
        <CharString name="Racute">
          -38 callgsubr
          -120 34 -52 callsubr
          endchar
        </CharString>
        <CharString name="Rcaron">
          26 callgsubr
          74 65 340 callsubr
          hintmask 0110100110000000
          180 callsubr
          hintmask 0111000110000000
          149 callsubr
          hintmask 0110100110000000
          -64 -29 -83 -137 vhcurveto
          hintmask 0110010110000000
          -248 332 rmoveto
          hintmask 0110100110000000
          -16 callgsubr
          hintmask 1010101110000000
          1 47 -68 6 -136 221 rlineto
          95 33 47 83 75 vvcurveto
          97 -78 96 -159 vhcurveto
          -222 152 rmoveto
          -40 callgsubr
        </CharString>
        <CharString name="Rcommaaccent">
          26 callgsubr
          240 callsubr
          59 75 117 102 hintmask 0110101110000000
          180 callsubr
          hintmask 0111001110000000
          149 callsubr
          hintmask 0110101110000000
          -64 -29 -83 -137 vhcurveto
          hintmask 0110011110000000
          -248 332 rmoveto
          hintmask 0110101110000000
          -16 callgsubr
          hintmask 1010101110000000
          1 47 -68 6 -136 221 rlineto
          95 33 47 83 75 vvcurveto
          97 -78 96 -159 vhcurveto
          -81 -782 -83 callgsubr
        </CharString>
        <CharString name="S">
          -61 -20 68 557 231 callgsubr
          hintmask 11101000
          -65 callsubr
          hintmask 11110000
          18 callgsubr
          hintmask 11101000
          212 callsubr
          endchar
        </CharString>
        <CharString name="Sacute">
          -61 -20 68 557 231 callgsubr
          hintmask 11101000
          -65 callsubr
          hintmask 11110000
          18 callgsubr
          hintmask 11101000
          212 callsubr
          135 203 -52 callsubr
          endchar
        </CharString>
        <CharString name="Scaron">
          -61 -20 68 557 65 34 231 callgsubr
          hintmask 11010100
          -65 callsubr
          hintmask 11011000
          18 callgsubr
          hintmask 11010100
          212 callsubr
          33 321 rmoveto
          hintmask 11110100
          -40 callgsubr
        </CharString>
        <CharString name="Scedilla">
          -61 188 callgsubr
          42 65 557 231 callgsubr
          hintmask 11111010
          60 489 rmoveto
          -109 97 -47 86 -41 vhcurveto
          89 -42 61 -30 -70 vvcurveto
          -38 -18 -43 -40 -21 vhcurveto
          -58 -6 -79 8 -64 48 -14 120 rcurveline
          -54 hlineto
          -11 -61 -2 -75 3 -33 36 -37 72 -22 61 -7 -43 -49 rcurveline
          -61 callsubr
          25 39 rlineto
          111 4 100 70 118 vvcurveto
          113 -92 46 -94 44 vhcurveto
          -86 40 -63 29 66 vvcurveto
          34 16 38 32 19 vhcurveto
          hintmask 11111100
          18 callgsubr
          hintmask 11111010
          212 callsubr
          endchar
        </CharString>
        <CharString name="Scommaaccent">
          -61 -20 68 557 65 hstemhm
          60 93 69 75 92 59 -55 95 hintmask 11110100
          -65 callsubr
          hintmask 11111000
          18 callgsubr
          hintmask 11110100
          212 callsubr
          138 -613 -83 callgsubr
        </CharString>
        <CharString name="T">
          3 0 120 callsubr
          hstemhm
          252 93 30 callsubr
          endchar
        </CharString>
        <CharString name="Tcaron">
          3 0 120 callsubr
          48 65 hstemhm
          252 93 hintmask 10100100
          143 32 rmoveto
          6 -32 rlineto
          309 hlineto
          1 47 -114 13 rlineto
          533 vlineto
          164 -6 rlineto
          hintmask 11000100
          13 -100 rlineto
          54 hlineto
          hintmask 10010100
          121 callgsubr
          hintmask 11000100
          -3 -33 2 -75 11 -61 rrcurveto
          54 hlineto
          hintmask 10100100
          13 100 164 6 rlineto
          -527 vlineto
          -33 -10 -47 -11 -29 -13 rrcurveto
          -21 778 rmoveto
          hintmask 10101100
          -40 callgsubr
        </CharString>
        <CharString name="Thorn">
          -3 0 111 callsubr
          102.5 64 244 54 81 52 -35 35 hstemhm
          120 93 235 101 hintmask 11110110
          326 callgsubr
          82 -10 rlineto
          -526 vlineto
          -20 -6 -49 -15 -21 -11 6 -35 rcurveline
          273 hlineto
          1 47 -97 11 rlineto
          97 87 vlineto
          165 84 85 95 86 -70 96 -159 hvcurveto
          -107 hlineto
          hintmask 11101110
          65 vlineto
          18 5 53 16 22 12 rrcurveto
          hintmask 11110110
          -6 35 rlineto
          -27 -431 rmoveto
          -24 -19 2 2 -17 hvcurveto
          213 vlineto
          155 27 rlineto
          54 -27 26 -46 -51 vvcurveto
          -63 -41 -57 -134 vhcurveto
          endchar
        </CharString>
        <CharString name="U">
          -90 callgsubr
          endchar
        </CharString>
        <CharString name="Uacute">
          -90 callgsubr
          21 42 -52 callsubr
          endchar
        </CharString>
        <CharString name="Ucircumflex">
          106 -18 75 541 52 -32 32 151 72 hstemhm
          87 93 351 74 hintmask 11001100
          11 65 callgsubr
          -311 vlineto
          -196 113 -105 164 153 88 91 220 vhcurveto
          hintmask 10101100
          203 callsubr
          hintmask 11001100
          -6 32 rlineto
          -241 hlineto
          -1 -47 89 -10 rlineto
          -320 vlineto
          -99 -24 -66 -44 -31 vhcurveto
          -12 -28 -29 -8 -38 hhcurveto
          -119 -69 78 138 hvcurveto
          hintmask 10101100
          200 callgsubr
          hintmask 11011100
          -6 32 rlineto
          -45 46 rmoveto
          11 callgsubr
          endchar
        </CharString>
        <CharString name="Udieresis">
          -90 callgsubr
          -9 209 -99 callgsubr
          endchar
        </CharString>
        <CharString name="Ugrave">
          -90 callgsubr
          14 224 86 callsubr
          endchar
        </CharString>
        <CharString name="Uhungarumlaut">
          -90 callgsubr
          7 63 53 callsubr
        </CharString>
        <CharString name="Umacron">
          106 -18 75 541 52 -32 32 92 69 hstemhm
          87 93 351 74 hintmask 11011100
          11 65 callgsubr
          -311 vlineto
          -196 113 -105 164 153 88 91 220 vhcurveto
          hintmask 10111100
          203 callsubr
          hintmask 11011100
          -6 32 rlineto
          -241 hlineto
          -1 -47 89 -10 rlineto
          -320 vlineto
          -99 -24 -66 -44 -31 vhcurveto
          -12 -28 -29 -8 -38 hhcurveto
          -119 -69 78 138 hvcurveto
          hintmask 10111100
          200 callgsubr
          hintmask 11011100
          -6 32 rlineto
          -90 136 36 callgsubr
          endchar
        </CharString>
        <CharString name="Uogonek">
          106 -254 68 168 75 541 52 -32 32 hstemhm
          87 93 85 73 193 74 hintmask 11101110
          11 65 callgsubr
          -311 vlineto
          -193 110 -105 160 -3 vhcurveto
          -58 -40 -34 -48 -46 -53 callsubr
          45 41 42 60 33 vhcurveto
          106 27 60 94 181 vvcurveto
          hintmask 11011110
          203 callsubr
          hintmask 11101110
          -6 32 rlineto
          -241 hlineto
          -1 -47 89 -10 rlineto
          -320 vlineto
          -99 -24 -66 -44 -31 vhcurveto
          -12 -28 -29 -8 -38 hhcurveto
          -119 -69 78 138 hvcurveto
          hintmask 11011110
          200 callgsubr
          hintmask 11101110
          -6 32 rlineto
          endchar
        </CharString>
        <CharString name="Uring">
          106 -18 75 541 52 -32 32 61 41 115 61 hstemhm
          87 93 67 51 115 51 67 74 hintmask 1101111110000000
          11 65 callgsubr
          -311 vlineto
          -196 113 -105 164 153 88 91 220 vhcurveto
          hintmask 1011111110000000
          203 callsubr
          hintmask 1101111110000000
          -6 32 rlineto
          -241 hlineto
          -1 -47 89 -10 rlineto
          -320 vlineto
          -99 -24 -66 -44 -31 vhcurveto
          -12 -28 -29 -8 -38 hhcurveto
          -119 -69 78 138 hvcurveto
          hintmask 1011111110000000
          200 callgsubr
          hintmask 1101111110000000
          -6 32 rlineto
          100 61 -68 callsubr
          endchar
        </CharString>
        <CharString name="V">
          86 -10 69 539.5 -22 callgsubr
          0 680 hintmask 11010000
          388 -2 rmoveto
          hintmask 10110000
          214 591 27 9 27 9 24 11 204 callgsubr
          -239 hlineto
          -1 -47 91 -11 -185 -533 rlineto
          -5 hlineto
          -13 118 rlineto
          hintmask 10110000
          -139 408 31 10 32 10 28 13 204 callgsubr
          -267 hlineto
          -1 -47 79 -9 208 -604 33 -1 37 3 31 6 rlinecurve
          endchar
        </CharString>
        <CharString name="W">
          325 -10 69 538 53 -32 32 hstemhm
          0 919 hintmask 11010000
          1 118 callsubr
          75 -9 171 -604 37 -3 35 3 35 7 rlinecurve
          82 262 19 113 rlineto
          2 hlineto
          108 -382 37 -3 37 3 35 7 rlinecurve
          hintmask 10110000
          167 592 27 8 28 10 24 11 204 callgsubr
          -249 hlineto
          -1 -47 101 -12 -146 -532 rlineto
          -3 hlineto
          -14 114 -118 466 -95 -25 38 -136 -122 -419 rlineto
          -4 hlineto
          -11 116 rlineto
          hintmask 10110000
          -113 411 30 10 31 10 27 12 204 callgsubr
          endchar
        </CharString>
        <CharString name="X">
          76 0 50.5 548 -22 callgsubr
          10 650 hintmask 11010000
          399 118 callsubr
          74 -9 -116 -194 rlineto
          hintmask 10110000
          -132 196 20 6 20 8 18 8 204 callgsubr
          -227 hlineto
          -1 -47 68 -8 168 -252 -194 -282 -27 -8 -29 -10 -24 -11 rlinecurve
          6 -32 rlineto
          246 hlineto
          1 47 -89 10 148 228 150 -227 -24 -7 -25 -9 -21 -10 rlinecurve
          6 -32 rlineto
          251 hlineto
          1 47 -72 7 -197 293 rlineto
          hintmask 10110000
          159 243 26 8 26 9 23 11 204 callgsubr
          endchar
        </CharString>
        <CharString name="Y">
          -67 callsubr
          endchar
        </CharString>
        <CharString name="Yacute">
          -67 callsubr
          1 42 -52 callsubr
          endchar
        </CharString>
        <CharString name="Ydieresis">
          -67 callsubr
          -29 209 -99 callgsubr
          endchar
        </CharString>
        <CharString name="Z">
          -43 callgsubr
          endchar
        </CharString>
        <CharString name="Zacute">
          -43 callgsubr
          157 692 -52 callsubr
          endchar
        </CharString>
        <CharString name="Zcaron">
          -20 0 75 393 182 -67 67 -46 46 54 65 hstemhm
          35 504 hintmask 10100100
          513 hmoveto
          12 64 9 60 5 61 -58 8 rcurveline
          -32 -117 -292 -2 rlineto
          hintmask 10010100
          373 530 rlineto
          hintmask 10100100
          -21 46 rlineto
          -447 hlineto
          hintmask 11000100
          -3 -33 2 -88 11 -61 rrcurveto
          54 hlineto
          hintmask 10101100
          13 110 274 10 -378 -543 21 -45 rlineto
          55 810 rmoveto
          -40 callgsubr
        </CharString>
        <CharString name="Zdotaccent">
          -43 callgsubr
          227 859 -70 callsubr
        </CharString>
        <CharString name="a">
          -96 callgsubr
          endchar
        </CharString>
        <CharString name="aacute">
          -96 callgsubr
          328 570 -56 callgsubr
        </CharString>
        <CharString name="abreve">
          -87 6 -21 22 -21 178 49.5 212.5 67 58 68 hstemhm
          50 94 -81 86 166 90 -87 75 hintmask 0111110100000000
          170 58 rmoveto
          -18 11 -8 17 18 vvcurveto
          63 97 4 74 -7 vhcurveto
          -69 vlineto
          -35 -16 -60 -23 -50 2 rrcurveto
          -120 46 rmoveto
          -58 47 -72 110 12 vhcurveto
          hintmask 1011101100000000
          113 68 14 -34 38 -33 19 303 callgsubr
          -15 44 rlineto
          -4 -14 -18 -5 -14 hhcurveto
          -15 -11 5 15 hvcurveto
          233 vlineto
          70 -3 17 -9 17 vhcurveto
          28 -15 -49 42 -43 hhcurveto
          -41 -122 -38 -34 -60 hvcurveto
          2 -42 9 -45 18 -33 53 4 rcurveline
          8 104 27 8 48 8 38 1 rlinecurve
          36 -18 13 -27 -62 vvcurveto
          -103 vlineto
          hintmask 0111110100000000
          39 callsubr
          hintmask 0111110010000000
          268 608 21 callgsubr
        </CharString>
        <CharString name="acircumflex">
          -96 callgsubr
          81 431 -28 callgsubr
        </CharString>
        <CharString name="acute">
          -309 531 203 hstem
          30 215 vstem
          245 674 -56 callgsubr
        </CharString>
        <CharString name="acutecomb">
          531 203 hstem
          -83 215 vstem
          132 674 -56 callgsubr
        </CharString>
        <CharString name="acutecomb.case">
          692 182 hstem
          -109 275 vstem
          -74 692 -52 callsubr
          endchar
        </CharString>
        <CharString name="adieresis">
          -96 callgsubr
          91 573 -99 callgsubr
          endchar
        </CharString>
        <CharString name="ae">
          152 -15 76 106 46.5 46 60 -60 228.5 -62 67 -66 61 hstemhm
          50 94 -81 86 166 89 hintmask 1100100110000000
          92 301 rmoveto
          53 4 8 104 27 8 48 8 38 1 rlinecurve
          36 -18 13 -27 -62 vvcurveto
          -103 vlineto
          hintmask 1101001010000000
          39 callsubr
          -58 47 -72 110 12 vhcurveto
          161 82 rlineto
          -50 41 63 -33 88 hhcurveto
          156 66 -15 43 rlineto
          -20 -45 -41 -13 -46 hhcurveto
          -88 -77 49 139 hvcurveto
          4 0 5 4 vvcurveto
          262 -5 57 56 rlineto
          101 2 -77 74 -104 hhcurveto
          -63 -53 -27 -41 -39 hvcurveto
          hintmask 1100100110000000
          30 -17 -44 43 -43 hhcurveto
          -40 -122 -38 -34 -60 hvcurveto
          2 -42 9 -45 18 -33 rrcurveto
          hintmask 1110011010000000
          78 -243 rmoveto
          -18 11 -8 17 18 vvcurveto
          64 102 3 74 -7 vhcurveto
          2 hlineto
          5 -20 7 -20 9 -18 -45 -20 -81 -30 -47 2 rrcurveto
          324 369 rmoveto
          72 5 57 -44 13 -63 -225 -11 rcurveline
          11 50 27 39 45 24 rrcurveto
          endchar
        </CharString>
        <CharString name="agrave">
          -96 callgsubr
          282 470 34 callgsubr
        </CharString>
        <CharString name="amacron">
          -87 6 -21 22 -21 178 49.5 212.5 67 69 69 hstemhm
          50 94 -81 86 166 90 hintmask 01111101
          170 58 rmoveto
          -18 11 -8 17 18 vvcurveto
          63 97 4 74 -7 vhcurveto
          -69 vlineto
          -35 -16 -60 -23 -50 2 rrcurveto
          -120 46 rmoveto
          -58 47 -72 110 12 vhcurveto
          hintmask 10111011
          113 68 14 -34 38 -33 19 303 callgsubr
          -15 44 rlineto
          -4 -14 -18 -5 -14 hhcurveto
          -15 -11 5 15 hvcurveto
          233 vlineto
          70 -3 17 -9 17 vhcurveto
          28 -15 -49 42 -43 hhcurveto
          -41 -122 -38 -34 -60 hvcurveto
          2 -42 9 -45 18 -33 53 4 rcurveline
          8 104 27 8 48 8 38 1 rlinecurve
          36 -18 13 -27 -62 vvcurveto
          -103 vlineto
          hintmask 01111101
          39 callsubr
          36 502 -24 callgsubr
        </CharString>
        <CharString name="ampersand">
          72 -25 60 337 85 149 62 0 -20 hstemhm
          23 95 -74 94 330 90 hintmask 10011010
          357 306 rmoveto
          27 17 24 13 22 10 rrcurveto
          24 -43 14 -49 -46 vvcurveto
          -60 -23 -57 -54 -36 vhcurveto
          -16 -39 -38 -4 -26 hhcurveto
          -90 -80 46 89 74 55 70 109 -1 hvcurveto
          9 50 rlineto
          hintmask 10100110
          -106 26 rlineto
          -31 25 -16 38 38 vvcurveto
          46 23 46 50 24 vhcurveto
          194 -63 29 87 rlineto
          27 -71 -61 11 -51 hhcurveto
          -139 -68 -82 -82 -54 30 -55 59 -31 hvcurveto
          hintmask 11011010
          -68 -29 -42 -65 -77 vvcurveto
          -132 121 -86 148 168 98 110 135 49 -13 52 -27 51 vhcurveto
          63 8 40 -26 42 -22 23 93 rcurveline
          -80 54 -73 -8 -203 -116 rrcurveto
          endchar
        </CharString>
        <CharString name="aogonek">
          -87 -242 68 181 -21 36 -21 163 49.5 212.5 67 hstemhm
          50 94 -81 86 108 73 -15 90 hintmask 1011110010000000
          50 104 rmoveto
          hintmask 1101110010000000
          -58 47 -72 110 12 vhcurveto
          hintmask 1011110100000000
          113 68 8 -20 16 -19 16 -14 rlinecurve
          -65 -41 -38 -52 -48 -53 callsubr
          46 44 44 63 33 vhcurveto
          hintmask 1011101010000000
          55 25 -15 44 rlineto
          -4 -14 -18 -5 -14 hhcurveto
          -15 -11 5 15 hvcurveto
          233 vlineto
          70 -3 17 -9 17 vhcurveto
          28 -15 -49 42 -43 hhcurveto
          -41 -122 -38 -34 -60 hvcurveto
          2 -42 9 -45 18 -33 53 4 rcurveline
          8 104 27 8 48 8 38 1 rlinecurve
          36 -18 13 -27 -62 vvcurveto
          -103 vlineto
          hintmask 1011110010000000
          39 callsubr
          120 -46 rmoveto
          -18 11 -8 17 18 vvcurveto
          63 97 4 74 -7 vhcurveto
          -69 vlineto
          -35 -16 -60 -23 -50 2 rrcurveto
          endchar
        </CharString>
        <CharString name="approxequal">
          -55 161 78 92 78 hstem
          61 425 vstem
          97 268 -62 callsubr
          36 -198 -62 callsubr
          endchar
        </CharString>
        <CharString name="aring">
          -87 6 -21 22 -21 178 49.5 212.5 67 36 41 115 61 hstemhm
          50 94 -81 86 -11 51 115 51 -40 90 hintmask 0111111000100000
          170 58 rmoveto
          -18 11 -8 17 18 vvcurveto
          63 97 4 74 -7 vhcurveto
          -69 vlineto
          -35 -16 -60 -23 -50 2 rrcurveto
          -120 46 rmoveto
          -58 47 -72 110 12 vhcurveto
          hintmask 1011110100100000
          113 68 14 -34 38 -33 19 303 callgsubr
          -15 44 rlineto
          -4 -14 -18 -5 -14 hhcurveto
          -15 -11 5 15 hvcurveto
          233 vlineto
          70 -3 17 -9 17 vhcurveto
          28 -15 -49 42 -43 hhcurveto
          -41 -122 -38 -34 -60 hvcurveto
          2 -42 9 -45 18 -33 53 4 rcurveline
          8 104 27 8 48 8 38 1 rlinecurve
          36 -18 13 -27 -62 vvcurveto
          -103 vlineto
          hintmask 0111111000100000
          39 callsubr
          hintmask 0111110011000000
          200 425 -68 callsubr
          endchar
        </CharString>
        <CharString name="asciicircum">
          -55 595 53 hstem
          40 469 vstem
          40 358 rmoveto
          48 -33 179 270 rlineto
          7 hlineto
          188 -264 47 34 -208 283 rlineto
          -65 hlineto
          endchar
        </CharString>
        <CharString name="asciitilde">
          5 261 78 hstem
          91 425 vstem
          127 198 -62 callsubr
          endchar
        </CharString>
        <CharString name="asterisk">
          -225 480 -20 hstem
          13 344 vstem
          122 736 rmoveto
          25 -132 40 3 13 148 rlineto
          115 -74 rmoveto
          -117 -65 15 -37 144 33 rlineto
          -28 -132 rmoveto
          -99 92 -31 -26 76 -127 rlineto
          -136 -12 rmoveto
          56 123 -34 21 -97 -112 rlineto
          -51 127 rmoveto
          134 -16 9 39 -136 58 rlineto
          endchar
        </CharString>
        <CharString name="at">
          442 -15 69 110 50 212 67 115 60 hstemhm
          101 99 126 94 -82 86 167 89 164 95 hintmask 0111101110000000
          428 409 rmoveto
          27 8 48 8 38 1 rrcurveto
          36 -18 14 -27 -62 vvcurveto
          -102 vlineto
          hintmask 1111110110000000
          -195 -6 rlineto
          -50 -28 -20 -41 -38 vvcurveto
          -58 47 -72 110 12 vhcurveto
          113 68 14 -34 36 -33 20 -2 rlinecurve
          181 20 92 143 151 vvcurveto
          179 -130 190 -276 -268 -164 -180 -203 -103 42 -109 89 -95 vhcurveto
          61 40 rlineto
          -63 82 -30 92 87 vvcurveto
          178 128 151 210 217 89 -160 -150 -93 -34 -92 -65 -43 vhcurveto
          -26 -17 -39 -15 51 vvcurveto
          230 vlineto
          70 -3 17 -9 17 vhcurveto
          28 -15 -49 42 -43 hhcurveto
          hintmask 0111101110000000
          -41 -122 -38 -34 -60 hvcurveto
          2 -42 9 -34 18 -43 53 4 rcurveline
          hintmask 0111110110000000
          26 -248 rmoveto
          -18 11 -8 17 18 vvcurveto
          63 97 4 74 -7 vhcurveto
          -69 vlineto
          -35 -16 -60 -23 -50 2 rrcurveto
          endchar
        </CharString>
        <CharString name="atilde">
          -87 6 -21 22 -21 178 49.5 212.5 67 133 78 -36 -20 hstemhm
          50 94 -81 86 166 90 hintmask 0111011010000000
          170 58 rmoveto
          -18 11 -8 17 18 vvcurveto
          63 97 4 74 -7 vhcurveto
          -69 vlineto
          -35 -16 -60 -23 -50 2 rrcurveto
          -120 46 rmoveto
          -58 47 -72 110 12 vhcurveto
          hintmask 1011010110000000
          113 68 14 -34 38 -33 19 303 callgsubr
          -15 44 rlineto
          -4 -14 -18 -5 -14 hhcurveto
          -15 -11 5 15 hvcurveto
          233 vlineto
          70 -3 17 -9 17 vhcurveto
          28 -15 -49 42 -43 hhcurveto
          -41 -122 -38 -34 -60 hvcurveto
          2 -42 9 -45 18 -33 53 4 rcurveline
          8 104 27 8 48 8 38 1 rlinecurve
          36 -18 13 -27 -62 vvcurveto
          -103 vlineto
          hintmask 0111011010000000
          39 callsubr
          hintmask 0111101010000000
          52 450 144 callgsubr
          hintmask 0111011010000000
          32 35 55 69 40 hvcurveto
          hintmask 0111101010000000
          58 callsubr
        </CharString>
        <CharString name="b">
          -74 -19 66 356 82 175 75 hstem
          66 89 246 94 vstem
          116 735 rmoveto
          -42 -1 -54 -12 -40 -18 12 -47 rcurveline
          74 6 rlineto
          -639 vlineto
          -28 61 56 -15 54 163 callsubr
          125 callsubr
        </CharString>
        <CharString name="backslash">
          -206 -126 833 hstem
          4 374 vstem
          378 -102 rmoveto
          -308 809 -66 -26 306 -807 rlineto
          endchar
        </CharString>
        <CharString name="bar">
          -301 -204 -21 hstem
          107 77 vstem
          184 -225 rmoveto
          960 -77 -960 vlineto
          endchar
        </CharString>
        <CharString name="braceleft">
          -175 656 73 hstem
          144 95 vstem
          329 -72 rmoveto
          -90 12 rlineto
          209 vlineto
          52 -13 45 -37 49 vhcurveto
          9 vlineto
          37 48 13 46 51 vvcurveto
          207 93 vlineto
          -6 73 rlineto
          -129 -14 -53 -75 -79 vvcurveto
          -118 vlineto
          -69 -7 -41 -62 -6 vhcurveto
          -6 -59 rlineto
          70 -6 5 -39 -81 vvcurveto
          -132 vlineto
          -70 67 -75 108 -10 vhcurveto
          endchar
        </CharString>
        <CharString name="braceright">
          -169 656 73 hstem
          182 95 vstem
          277 10 rmoveto
          132 vlineto
          81 5 39 70 6 vhcurveto
          -6 59 rlineto
          -62 6 -7 41 69 vvcurveto
          118 vlineto
          79 -53 75 -129 14 vhcurveto
          -6 -73 rlineto
          93 -207 hlineto
          -51 13 -46 37 -48 vhcurveto
          -9 vlineto
          -37 -49 -13 -45 -52 vvcurveto
          -209 vlineto
          -90 -12 10 -73 rlineto
          108 10 67 75 70 vvcurveto
          endchar
        </CharString>
        <CharString name="bracketleft">
          -248 -122 78 678 78 hstem
          99 83 vstem
          99 712 rmoveto
          -834 207 vlineto
          6 56 -130 22 rlineto
          678 vlineto
          130 22 -6 56 rlineto
          endchar
        </CharString>
        <CharString name="bracketright">
          -244 -122 78 678 78 hstem
          165 83 vstem
          35 656 rmoveto
          130 -22 rlineto
          -678 vlineto
          -130 -22 6 -56 rlineto
          207 834 -207 hlineto
          endchar
        </CharString>
        <CharString name="breve">
          -244 551 68 hstem
          255 75 vstem
          255 712 21 callgsubr
        </CharString>
        <CharString name="brokenbar">
          -301 -76 258 176 258 hstem
          107 77 vstem
          184 358 rmoveto
          258 -77 -258 vlineto
          77 -434 rmoveto
          258 -77 -258 vlineto
          endchar
        </CharString>
        <CharString name="bullet">
          -183 136 256 hstem
          85 241 vstem
          197 392 rmoveto
          -60 -29 -39 -50 -13 -68 23 -56 46 -38 64 -15 59 28 37 43 12 57 -22 63 -44 43 -63 22 rrcurveto
          endchar
        </CharString>
        <CharString name="bulletoperator">
          -395 178 118 hstem
          30 119 vstem
          149 244 -101 callgsubr
        </CharString>
        <CharString name="c">
          -179 -15 74 366 63 -32 callsubr
          -137 81 -114 157 2 hvcurveto
          136 55 rlineto
          endchar
        </CharString>
        <CharString name="cacute">
          -179 -15 74 366 63 -32 callsubr
          -137 81 -114 157 2 hvcurveto
          136 55 rlineto
          -26 634 -56 callgsubr
        </CharString>
        <CharString name="caron">
          -202 542 65 hstem
          31 334 vstem
          31 685 -38 callsubr
        </CharString>
        <CharString name="ccaron">
          -179 -15 74 366 63 54 65 -32 callsubr
          -137 81 -114 157 2 hvcurveto
          136 55 rlineto
          -336 645 -38 callsubr
        </CharString>
        <CharString name="ccedilla">
          -179 188 callgsubr
          68 -21 437 63 -32 callsubr
          -122 64 -103 125 -21 hvcurveto
          -48 -54 -61 callsubr
          29 45 134 54 rlineto
          endchar
        </CharString>
        <CharString name="cedilla">
          -344 188 callgsubr
          hstem
          30 190 vstem
          146 6 rmoveto
          -49 hlineto
          -63 -72 -61 callsubr
          endchar
        </CharString>
        <CharString name="cent">
          -179 -115 198 335 187 -132 -20 22 -20 hstemhm
          20 93 97 62 hintmask 10011100
          210 -115 rmoveto
          62 135 hlineto
          122 46 -17 38 rlineto
          -15 -36 -39 -6 -29 hhcurveto
          -103 -57 76 103 hvcurveto
          hintmask 11001100
          60 20 51 42 45 vhcurveto
          59 -3 62 -28 51 -36 rrcurveto
          hintmask 10011100
          53 65 -38 34 -40 20 -50 5 rlinecurve
          hintmask 11001100
          130 -62 vlineto
          hintmask 10101100
          -132 vlineto
          -111 -16 -79 -90 -124 vvcurveto
          -112 65 -95 125 -18 vhcurveto
          endchar
        </CharString>
        <CharString name="circumflex">
          -215 535 182 hstem
          28 331 vstem
          74 535 -28 callgsubr
        </CharString>
        <CharString name="colon">
          -267 1 -21 hstem
          90 137 vstem
          154 124 189 callgsubr
          307 vmoveto
          -19 callgsubr
          endchar
        </CharString>
        <CharString name="comma">
          -350 21 -21 hstem
          110 80 vstem
          71 -146 161 callgsubr
        </CharString>
        <CharString name="copyright">
          236 -19 61 91 72 267 57 96 61 hstem
          62 61 108 75 400 61 vstem
          767 332 rmoveto
          197 -158 157 -195 -194 -158 -156 -199 -200 158 -150 195 201 151 159 192 vhcurveto
          -644 -1 rmoveto
          164 131 130 161 161 130 -131 -160 -161 -130 -131 -163 -159 -131 124 165 vhcurveto
          425 -99 rmoveto
          -19 -42 -36 -8 -31 hhcurveto
          -88 -45 65 71 47 20 49 41 35 hvcurveto
          64 -2 47 -26 38 -41 59 54 rcurveline
          52 -40 -52 20 -57 hhcurveto
          -127 -68 -100 -100 -97 64 -97 134 -2 hvcurveto
          136 57 rlineto
          endchar
        </CharString>
        <CharString name="currency">
          -84 174 59 242 61 hstem
          82 70 203 71 vstem
          253 174 rmoveto
          31 31 8 16 27 hvcurveto
          62 -67 44 43 -60 65 rlineto
          24 30 14 40 49 vvcurveto
          46 -13 37 -20 29 vhcurveto
          57 69 -48 39 -55 -66 rlineto
          16 -26 -30 8 -31 hhcurveto
          -33 -32 -9 -16 -27 hvcurveto
          -61 68 -47 -41 60 -68 rlineto
          -23 -30 -15 -38 -46 vvcurveto
          -45 15 -42 24 -31 vhcurveto
          -55 -68 46 -41 56 68 rlineto
          -15 25 28 -8 32 hhcurveto
          18 59 rmoveto
          -87 -32 64 62 48 19 45 25 19 hvcurveto
          3 14 11 1 12 hhcurveto
          95 27 -70 -58 -53 -23 -51 -21 -6 hvcurveto
          -3 -15 -14 -1 -11 hhcurveto
          endchar
        </CharString>
        <CharString name="d">
          260 callsubr
          hintmask 10111100
          140 callgsubr
          hintmask 11011100
          57 callsubr
          rlineto
          -281 36 89 callsubr
          endchar
        </CharString>
        <CharString name="dagger">
          -63 396 72 -29 29 hstemhm
          209 91.5 -83 73 hintmask 10100000
          207 276 callgsubr
          hintmask 10010000
          156 hlineto
          11 -576 rlineto
          61 hlineto
          13 576 rlineto
          141 hlineto
          hintmask 01010000
          43 43 rlineto
          hintmask 10100000
          301 callgsubr
        </CharString>
        <CharString name="daggerdbl">
          -54 119 72 205 72 -29 29 hstemhm
          218 91.5 -86.5 80.5 -74.5 67.5 hintmask 11010000
          216 276 callgsubr
          hintmask 11001000
          156 hlineto
          4 -205 rlineto
          -132 hlineto
          -43 -43 6 -29 rlineto
          hintmask 11000100
          170 hlineto
          6 -299 rlineto
          61 hlineto
          7 299 rlineto
          138 hlineto
          43 43 -6 29 rlineto
          hintmask 11001000
          -174 hlineto
          5 205 rlineto
          141 hlineto
          hintmask 10100100
          43 43 rlineto
          hintmask 11010000
          301 callgsubr
        </CharString>
        <CharString name="dcaron">
          260 callsubr
          110 84 hintmask 10111110
          140 callgsubr
          hintmask 11011110
          57 callsubr
          rlineto
          -281 36 89 callsubr
          277 666 41 callsubr
        </CharString>
        <CharString name="dcroat">
          -49 -15 82 357 66 -15 -20 93 54 58 75 hstemhm
          20 94 241 89 hintmask 10111110
          545 573 rmoveto
          -6 29 rlineto
          -95 97 hlineto
          -40 36 -42 -1 -54 -12 -40 -18 rlinecurve
          -41 callgsubr
          -61 -89 vlineto
          -43 -25 6 -29 rlineto
          126 -73 hlineto
          hintmask 11011110
          57 callsubr
          -15 44 rlineto
          -4 -14 -18 -5 -14 hhcurveto
          -15 -11 5 15 hvcurveto
          462 58 vlineto
          -252 -481 89 callsubr
          endchar
        </CharString>
        <CharString name="degree">
          -241 374 48 165 50 hstem
          30 58 146 59 vstem
          171 422 rmoveto
          -54 -29 44 45 24 8 24 16 19 hvcurveto
          6 15 13 3 13 hhcurveto
          50 31 -46 -46 -25 -9 -25 -20 -18 hvcurveto
          -4 -12 -12 -1 -10 hhcurveto
          -7 -48 rmoveto
          75 54 51 80 74 -58 58 -75 -73 -57 -58 -74 -79 62 -52 72 hvcurveto
          endchar
        </CharString>
        <CharString name="dieresis">
          -213 551 126 hstem
          27 321 vstem
          82 677 -99 callgsubr
          endchar
        </CharString>
        <CharString name="divide">
          8 0 -21 219 66 217 -20 hstem
          60 482 vstem
          60 264 rmoveto
          -66 482 66 vlineto
          -242 -147 298 callgsubr
          21 9 48 0 vvcurveto
          0 -3 43 -67 26 vhcurveto
          1 364 298 callgsubr
          22 9 47 0 vvcurveto
          0 -3 43 -67 26 vhcurveto
          endchar
        </CharString>
        <CharString name="dollar">
          -64 -145 193 -68 68 -41 -21 619 63 -63 64 -64 180 hstemhm
          60 93 107 63 66 59 -55 95 hintmask 1000101101000000
          323 -145 rmoveto
          hintmask 0010101101000000
          131 vlineto
          91 19 74 65 102 vvcurveto
          113 -92 46 -94 44 vhcurveto
          -86 40 -63 29 66 vvcurveto
          34 16 38 32 19 vhcurveto
          hintmask 0100101110000000
          61 10 69 -9 53 -41 10 -91 rcurveline
          54 hlineto
          11 61 2 75 -3 33 -34 11 -49 15 -53 4 rrcurveto
          hintmask 0100011101000000
          116 -62 vlineto
          hintmask 0101001101000000
          -117 vlineto
          -106 -10 -94 -62 -107 vvcurveto
          -109 97 -47 86 -41 vhcurveto
          89 -42 61 -30 -70 vvcurveto
          -38 -18 -43 -40 -21 vhcurveto
          -58 -6 -79 8 -64 48 -14 120 rcurveline
          -54 hlineto
          -11 -61 -2 -75 3 -33 43 -44 96 -23 65 -2 rrcurveto
          hintmask 1000101101000000
          -125 vlineto
          endchar
        </CharString>
        <CharString name="dotaccent">
          -416 551 126 hstem
          30 118 vstem
          85 677 -70 callsubr
        </CharString>
        <CharString name="dotbelowcomb">
          -204 -21 hstem
          -60 118 vstem
          -5 -99 -70 callsubr
        </CharString>
        <CharString name="dotbelowcomb.case">
          -204 -21 hstem
          -60 118 vstem
          -5 -99 -70 callsubr
        </CharString>
        <CharString name="dotlessi">
          -67 callgsubr
          endchar
        </CharString>
        <CharString name="dvKSPLa">
          1378 103 68 -36 76 31 69 -10 30 4 74 -72 86 -65 55 -44 64 callgsubr
          359 83 190 83 204 83 392 83 hintmask 1010000111111110
          -40 callsubr
          hintmask 1001000111111110
          30 21 -16 -18 13 hvcurveto
          -11 -30 231 callsubr
          hintmask 1010000111111110
          -1 callsubr
          296 hlineto
          -63 44 72 -44 63 hhcurveto
          29 36 9 23 32 hvcurveto
          34 -63 66 -69 106 -74 34 44 rcurveline
          191 callsubr
          24 7 288 callgsubr
          rlinecurve
          -353 -105 callgsubr
          -1993 40 callgsubr
          -152 hlineto
          -104 50 rlineto
          -88 27 -107 -62 -103 vvcurveto
          -98 callsubr
          723 315 240 callgsubr
          233 284 callgsubr
          -213 37 callsubr
          hintmask 0110001011111110
          372 -158 rmoveto
          -42 -37 18 92 callsubr
          722 201 callgsubr
          hintmask 0110010011111110
          208 callsubr
          -7 0 -6 1 -7 hvcurveto
          hintmask 0110001011111110
          -27 -31 -39 -14 -36 hhcurveto
          hintmask 1010100011111110
          -688 198 rmoveto
          -29 callsubr
          402 hlineto
          hintmask 1010000111111110
          76 callsubr
          -102 hlineto
          hintmask 1010100011111110
          325 callgsubr
        </CharString>
        <CharString name="dvKSPLa.MAR">
          1397 103 68 -36 76 31 69 -12 32 4 74 -72 86 -54 64 callgsubr
          389 83 170 83 208 83 332 83 48 69 hintmask 1010001111111110
          -40 callsubr
          37 24 -25 -22 11 hvcurveto
          3 -6 rlineto
          hintmask 1001001111111110
          18 17 -10 -28 231 callsubr
          hintmask 1010001111111110
          -1 callsubr
          276 hlineto
          -63 44 72 -44 63 hhcurveto
          30 37 10 24 33 hvcurveto
          34 -64 66 -69 107 -75 34 44 rcurveline
          165 callsubr
          31 28 -14 -36 32 vhcurveto
          -11 -26 -7 -31 -2 -35 59 -48 rcurveline
          24 7 rlineto
          100 callgsubr
          -2012 40 callgsubr
          -152 hlineto
          -104 50 rlineto
          -88 27 -107 -62 -103 vvcurveto
          -98 callsubr
          753 315 240 callgsubr
          213 284 callgsubr
          -193 37 callsubr
          hintmask 0110010111111110
          352 -158 rmoveto
          -42 -37 18 92 callsubr
          666 -125 hlineto
          -47 -8 -47 -28 -33 -50 -71 76 rcurveline
          13 -21 -25 7 -26 hhcurveto
          -71 -74 -56 -95 -6 0 -5 1 -6 hvcurveto
          -29 -32 -40 -15 -38 hhcurveto
          hintmask 1010001111111110
          -568 120 rmoveto
          -3 -8 rlineto
          hintmask 1010100111111110
          50 -24 -52 36 -51 hhcurveto
          -29 callsubr
          432 hlineto
          hintmask 1010001111111110
          76 callsubr
          endchar
        </CharString>
        <CharString name="e">
          1 callsubr
          -95 callsubr
          endchar
        </CharString>
        <CharString name="eacute">
          1 callsubr
          -95 callsubr
          -47 623 -56 callgsubr
        </CharString>
        <CharString name="ecaron">
          1 callsubr
          54 65 -95 callsubr
          -357 634 -38 callsubr
        </CharString>
        <CharString name="ecircumflex">
          1 callsubr
          -95 callsubr
          -294 484 -28 callgsubr
        </CharString>
        <CharString name="edieresis">
          1 callsubr
          -95 callsubr
          -284 626 -99 callgsubr
          endchar
        </CharString>
        <CharString name="edotaccent">
          1 callsubr
          -95 callsubr
          -184 626 -70 callsubr
        </CharString>
        <CharString name="egrave">
          1 callsubr
          -95 callsubr
          -93 523 34 callgsubr
        </CharString>
        <CharString name="eight">
          -89 -20 61 572 55 hstemhm
          40 99 -84 89 218 83 -71 91 hintmask 11011000
          445 518 rmoveto
          83 -70 67 -119 -125 -76 -75 -91 -69 43 -59 83 -44 vhcurveto
          hintmask 11100100
          -91 -45 -50 -61 -74 vvcurveto
          -92 75 -78 132 138 80 86 98 92 -71 51 -75 42 vhcurveto
          hintmask 11011000
          87 50 39 58 61 vvcurveto
          -301 -6 rmoveto
          26 10 29 25 31 vhcurveto
          10 25 23 5 22 hhcurveto
          68 45 -49 -60 -28 -10 -51 -77 -52 hvcurveto
          -67 35 -64 37 67 vvcurveto
          hintmask 11100100
          118 -471 rmoveto
          -81 -42 57 64 54 29 58 60 32 hvcurveto
          101 -50 45 -50 -58 vvcurveto
          -28 -11 -30 -20 -34 vhcurveto
          -10 -30 -27 -5 -24 hhcurveto
          endchar
        </CharString>
        <CharString name="ellipsis">
          333 3 -21 hstem
          90 137 163 137 163 137 cntrmask 01110000
          154 126 189 callgsubr
          300 hmoveto
          -19 callgsubr
          300 hmoveto
          -19 callgsubr
          endchar
        </CharString>
        <CharString name="emacron">
          1 callsubr
          74 69 -95 callsubr
          -339 555 -24 callgsubr
        </CharString>
        <CharString name="emdash">
          379 219 77 hstem
          40 893 vstem
          40 267 rmoveto
          7 -48 rlineto
          839 hlineto
          47 48 -3 29 rlineto
          -776 hlineto
          -31 -44 -9 -20 -39 hvcurveto
          endchar
        </CharString>
        <CharString name="endash">
          -43 219 77 hstem
          40 471 vstem
          40 267 rmoveto
          7 -48 rlineto
          416 hlineto
          48 48 -4 29 rlineto
          -354 hlineto
          -30 -44 -9 -20 -39 hvcurveto
          endchar
        </CharString>
        <CharString name="enspace">
          -94 endchar
        </CharString>
        <CharString name="eogonek">
          -124 -226 68 144 75 198.5 60.5 107 61 hstem
          20 94 68 73 vstem
          199 427 rmoveto
          72 5 57 -44 13 -63 -219 -10 rcurveline
          11 46 24 44 42 22 rrcurveto
          207 -333 rmoveto
          -20 -45 -43 -13 -40 hhcurveto
          -92 -72 68 118 hvcurveto
          5 0 5 5 vvcurveto
          257 -5 57 56 rlineto
          101 2 -77 74 -104 hhcurveto
          -137 -92 -128 -134 -119 74 -111 149 -10 hvcurveto
          -39 -35 -22 -38 -37 -53 callsubr
          49 49 46 70 34 vhcurveto
          47 23 rlineto
          endchar
        </CharString>
        <CharString name="equal">
          -2 124 65 115 65 hstem
          60 472 vstem
          60 189 rmoveto
          -65 472 65 vlineto
          -472 180 rmoveto
          -65 472 65 vlineto
          endchar
        </CharString>
        <CharString name="eth">
          -103 419 64 hstem
          20 87 267 91 vstem
          190 722 rmoveto
          23 -27 20 -25 17 -23 -107 -58 rcurveline
          12 -26 41 -18 89 48 28 -46 20 -47 20 -58 rlinecurve
          26 -29 -30 15 -48 hhcurveto
          -129 -97 -111 -142 -141 96 -113 129 124 96 106 179 97 -28 137 -82 136 hvcurveto
          94 50 -31 56 -98 -53 -19 26 -20 26 -23 25 rlinecurve
          -151 -528 rmoveto
          74 34 80 53 32 vhcurveto
          66 1 52 -26 54 -48 22 -121 -21 -117 -68 -60 rrcurveto
          -132 -15 -60 102 98 vvcurveto
          endchar
        </CharString>
        <CharString name="exclam">
          -297 1 -21 656 20 hstem
          80 137 vstem
          177 210 rmoveto
          34 424 -19 30 -78 -2 -26 -26 rlinecurve
          32 -426 rlineto
          -40 -169 rmoveto
          14 -33 26 -21 36 -7 30 14 21 24 10 34 -6 32 -27 25 -40 15 -36 -18 -22 -27 -6 -38 rrcurveto
          endchar
        </CharString>
        <CharString name="exclamdown">
          -297 -189 676 hstem
          80 137 vstem
          177 257 rmoveto
          34 -424 -19 -30 -78 2 -26 26 rlinecurve
          32 426 rlineto
          -40 169 rmoveto
          14 33 26 21 36 7 30 -14 21 -24 10 -34 -6 -32 -27 -25 -40 -15 -36 18 -22 27 -6 38 rrcurveto
          endchar
        </CharString>
        <CharString name="f">
          -268 0 66 325 77 -28 28 195 288 callsubr
          hintmask 10111100
          361 702 -2 callsubr
          hintmask 11010100
          -58 callgsubr
          hintmask 10110100
          47 49 rlineto
          hintmask 11010100
          169 callsubr
          195 rlineto
          hintmask 11011100
          215 callsubr
          endchar
        </CharString>
        <CharString name="f_b.liga">
          270 -19 66 -47 66 325 77 -65 82 -45 28 189 78 hstemhm
          83 89 238 89 246 94 hintmask 1010011110000000
          460 735 rmoveto
          -191 286 callsubr
          hintmask 1000111110000000
          -84 vlineto
          -22 -5 -23 -6 -23 -11 rrcurveto
          hintmask 0110011110000000
          -58 callgsubr
          hintmask 1000111110000000
          47 49 rlineto
          hintmask 1010011110000000
          169 callsubr
          189 rlineto
          256 -633 hlineto
          -28 61 56 -15 54 hhcurveto
          151 107 115 154 hvcurveto
          hintmask 1001011110000000
          140 -89 119 -133 -28 vhcurveto
          125 callsubr
        </CharString>
        <CharString name="f_f.liga">
          58 0 66 325 77 -28 28 195 288 callsubr
          237 89 hintmask 10111110
          361 702 -2 callsubr
          hintmask 11010110
          -58 callgsubr
          hintmask 10110110
          47 49 rlineto
          hintmask 11010110
          169 callsubr
          195 rlineto
          hintmask 10111110
          215 callsubr
          382 80 -2 callsubr
          hintmask 11010110
          -58 callgsubr
          hintmask 10110110
          47 49 rlineto
          hintmask 11010110
          169 callsubr
          195 rlineto
          hintmask 11011110
          215 callsubr
          endchar
        </CharString>
        <CharString name="f_h.liga">
          320 0 48 -48 63 -63 66 325 77 -64 80 -44 28 16 -20 193 78 hstemhm
          83 89 256 89 216 89 hintmask 0011000111100000
          257 hmoveto
          hintmask 1001000111100000
          6 48 rlineto
          hintmask 0011000111100000
          -21 9 -38 6 -32 3 rrcurveto
          325 66 vlineto
          hintmask 0010010111100000
          47 49 rlineto
          hintmask 0011000111100000
          169 callsubr
          189 rlineto
          274 -597 hlineto
          185 callgsubr
          217 hlineto
          hintmask 1001000111100000
          6 48 rlineto
          hintmask 0100100111100000
          -16 7 -24 5 -25 3 rrcurveto
          269 vlineto
          36 48 65 36 39 hhcurveto
          34 30 -27 -81 hvcurveto
          hintmask 0011000111100000
          -241 vlineto
          -21 -7 -22 -8 -14 -7 5 -33 rcurveline
          207 hlineto
          hintmask 1001000111100000
          6 48 rlineto
          hintmask 0010001111100000
          -17 8 -28 5 -27 3 rrcurveto
          26 callsubr
          -33 -81 -41 -57 -86 hvcurveto
          314 vlineto
          -40 35 rlineto
          -208 286 callsubr
          hintmask 0010010111100000
          -84 vlineto
          -22 -5 -23 -6 -23 -11 rrcurveto
          hintmask 0011000111100000
          6 -49 62 2 rlineto
          -335 vlineto
          -24 -7 -28 -10 -16 294 callgsubr
          endchar
        </CharString>
        <CharString name="f_i.liga">
          15 0 66 325 77 -59 59 -28 28 16 -20 185 -20 34 288 callsubr
          256 89 hintmask 1001001111000000
          361 702 -2 callsubr
          hintmask 1100001011000000
          -58 callgsubr
          hintmask 1001001011000000
          47 49 rlineto
          hintmask 1100001011000000
          169 callsubr
          195 rlineto
          hintmask 1100001111000000
          215 callsubr
          hintmask 1000110011000000
          231 27 0 callsubr
          hintmask 1010001011000000
          -41 callgsubr
          -351 88 callgsubr
          endchar
        </CharString>
        <CharString name="f_j.liga">
          4 -189 -21 210 66 325 77 -59 59 -28 28 16 -20 199 288 callsubr
          260 89 hintmask 1100101111000000
          361 702 -2 callsubr
          hintmask 1110001011000000
          -58 callgsubr
          hintmask 1100101011000000
          47 49 rlineto
          hintmask 1110001011000000
          169 callsubr
          195 rlineto
          hintmask 1100011111000000
          215 callsubr
          235 26 rmoveto
          -15 20 -32 29 -28 11 -22 -14 -25 -32 -14 -30 16 -23 36 -27 25 -10 23 16 26 33 10 27 rrcurveto
          -59 -164 rmoveto
          -42 -1 -54 -12 -40 -18 rrcurveto
          hintmask 1101001011000000
          197 callsubr
          hintmask 1100011011000000
          510 vlineto
          endchar
        </CharString>
        <CharString name="f_k.liga">
          293 0 62 -62 66 -60 -21 43 37 326 77 -28 28 16 -20 193 78 hstemhm
          83 89 253 89 hintmask 0100100111000000
          257 hmoveto
          6 48 -21 9 -38 6 -32 3 rlinecurve
          325 66 vlineto
          hintmask 0100010111000000
          47 49 rlineto
          hintmask 0100100111000000
          169 callsubr
          189 rlineto
          271 -597 hlineto
          185 callgsubr
          207 hlineto
          hintmask 1000100111000000
          178 callsubr
          hintmask 0011001111000000
          98 -150 25 -38 16 -17 31 -7 rlinecurve
          95 43 -15 44 -35 -10 -20 0 -9 13 rlinecurve
          -122 176 158 183 -31 50 -41 -1 -78 -12 -49 -18 rlinecurve
          12 -47 84 11 -121 -141 -76 -42 rlineto
          466 vlineto
          -40 35 rlineto
          -205 286 callsubr
          hintmask 0100010111000000
          -84 vlineto
          -22 -5 -23 -6 -23 -11 rrcurveto
          hintmask 0100100111000000
          6 -49 62 2 rlineto
          -335 vlineto
          -24 -7 -28 -10 -16 294 callgsubr
          endchar
        </CharString>
        <CharString name="f_l.liga">
          30 0 66 325 77 -28 28 189 78 hstemhm
          83 89 256 89 hintmask 11011100
          257 hmoveto
          6 48 -21 9 -38 6 -32 3 rlinecurve
          325 66 vlineto
          hintmask 10111100
          47 49 rlineto
          hintmask 11011100
          169 callsubr
          189 rlineto
          274 -596 hlineto
          -26 -8 -32 -11 -18 -9 5 -33 rcurveline
          226 348 callgsubr
          636 vlineto
          -40 35 rlineto
          -208 286 callsubr
          hintmask 10111100
          -84 vlineto
          -22 -5 -23 -6 -23 -11 rrcurveto
          hintmask 11011100
          6 -49 62 2 rlineto
          -335 vlineto
          -24 -7 -28 -10 -16 294 callgsubr
          endchar
        </CharString>
        <CharString name="f_t.liga">
          75 -15 83 -68 66 -60 -21 406 77 -29 29 195 288 callsubr
          243 89 hintmask 0100111110000000
          361 702 -2 callsubr
          hintmask 0101010110000000
          -58 callgsubr
          hintmask 0100110110000000
          47 49 rlineto
          hintmask 0101010110000000
          169 callsubr
          195 rlineto
          hintmask 1001011110000000
          215 callsubr
          324 -531 79 callsubr
          hintmask 0100110110000000
          47 48 rlineto
          hintmask 0101010110000000
          -4 29 rlineto
          -140 121 -47 hlineto
          hintmask 0010110110000000
          54 callgsubr
          hintmask 1001010110000000
          130 60 rlineto
          endchar
        </CharString>
        <CharString name="five">
          -47 -20 81 246 84 184.5 74.5 hstemhm
          387.5 234 callsubr
          -48 86 hintmask 11110000
          458 650 rmoveto
          -340 hlineto
          -35 -323 49 -43 rlineto
          13 33 44 10 39 hhcurveto
          hintmask 11101000
          80 78 -41 -97 -29 -7 -36 -42 -38 hvcurveto
          -88 -17 -96 26 -85 58 -39 -82 rcurveline
          -43 64 87 -28 72 hhcurveto
          129 91 87 122 142 -122 60 -110 -31 -41 -5 -13 -26 hvcurveto
          20 207 rlineto
          hintmask 11110000
          200 -9 11 -84 57 1 9 50 2 62 -3 50 rlinecurve
          endchar
        </CharString>
        <CharString name="four">
          -28 0 53.5 121.5 67 -42 48.5 411.5 -20 30 -20 hstemhm
          326 89 hintmask 11001100
          492 hmoveto
          6 48 -83 11 rlineto
          116 88 vlineto
          hintmask 10101100
          28 25 rlineto
          hintmask 11010100
          -1 50 -115 -3 rlineto
          413 vlineto
          hintmask 11001100
          -77 10 -313 -438 23 -57 rlineto
          278 -105 hlineto
          -38 -11 -37 -11 -36 -14 6 -34 rcurveline
          105 483 rmoveto
          -238 vlineto
          -203 -6 215 335 rlineto
          endchar
        </CharString>
        <CharString name="four.dnom">
          -307 0 247 callgsubr
          hstem
          148 63 vstem
          250 hmoveto
          -42 callsubr
        </CharString>
        <CharString name="four.numr">
          -307 345 247 callgsubr
          196.5 -20 31 -20 hstemhm
          148 63 hintmask 11011000
          250 345 rmoveto
          2 25 -41 6 rlineto
          42 42 vlineto
          13 20 rlineto
          26 -55 vlineto
          hintmask 11101000
          195 vlineto
          hintmask 11011000
          -51 11 -155 -222 11 -30 rlineto
          132 -37 hlineto
          -19 -5 -18 -7 -16 -8 3 -16 rcurveline
          50 205 rmoveto
          -87 vlineto
          -75 -1 85 131 rlineto
          endchar
        </CharString>
        <CharString name="foursuperior">
          -307 426 247 callgsubr
          hstem
          148 63 vstem
          250 426 rmoveto
          -42 callsubr
        </CharString>
        <CharString name="fraction">
          176 callgsubr
        </CharString>
        <CharString name="g">
          227 callgsubr
          hstemhm
          34 81 -68 92 231 92 -18 58 hintmask 11110110
          -20 callsubr
          hintmask 11111001
          33 callsubr
          hintmask 11110110
          44 callsubr
          -144 -466 rmoveto
          hintmask 11111001
          162 callgsubr
          hintmask 11110110
          -70 -38 -99 -35 -81 hhcurveto
          endchar
        </CharString>
        <CharString name="gbreve">
          227 callgsubr
          55 68 hstemhm
          34 81 -68 92 187 75 -31 92 -18 58 hintmask 1111101010000000
          -20 callsubr
          hintmask 1111110001000000
          33 callsubr
          hintmask 1111101010000000
          44 callsubr
          -144 -466 rmoveto
          hintmask 1111110001000000
          162 callgsubr
          hintmask 1111101010000000
          -70 -38 -99 -35 -81 hhcurveto
          hintmask 1111101100000000
          100 862 21 callgsubr
        </CharString>
        <CharString name="gcommaaccent">
          227 callgsubr
          hstemhm
          34 81 -68 92 134 75 22 92 -18 58 hintmask 1111011100000000
          -20 callsubr
          hintmask 1111101010000000
          33 callsubr
          hintmask 1111011100000000
          44 callsubr
          hintmask 1011101010000000
          -144 -466 rmoveto
          162 callgsubr
          -70 -38 -99 -35 -81 hhcurveto
          23 816 -83 callgsubr
        </CharString>
        <CharString name="germandbls">
          -51 0 58 -53 -21 37 -21 616 70 hstemhm
          83 86 189 85 -9 85 hintmask 00111100
          83 479 rmoveto
          -17 vlineto
          -22 -5 -23 -6 -23 -11 6 -49 rcurveline
          62 2 rlineto
          hintmask 10011100
          -335 vlineto
          -24 -7 -28 -10 -16 294 callgsubr
          149 434 hlineto
          -12 151 55 37 80 0 43 -15 rlinecurve
          72 -102 -117 -96 -43 -84 rrcurveto
          hintmask 00111010
          -93 187 -30 -98 vvcurveto
          -20 -8 -20 -14 -20 vhcurveto
          -59 9 -58 31 -32 21 -38 -84 rcurveline
          hintmask 01011010
          -23 42 48 -14 45 hhcurveto
          87 72 50 86 135 -175 22 -27 76 hvcurveto
          hintmask 00111100
          89 51 37 56 60 vvcurveto
          84 -73 82 -106 -93 -88 -63 -144 vhcurveto
          endchar
        </CharString>
        <CharString name="grave">
          -309 531 203 hstem
          40 215 vstem
          255 574 34 callgsubr
        </CharString>
        <CharString name="gravecomb">
          531 203 hstem
          -129 215 vstem
          86 574 34 callgsubr
        </CharString>
        <CharString name="gravecomb.case">
          692 182 hstem
          -134 275 vstem
          -84 874 86 callsubr
          endchar
        </CharString>
        <CharString name="greater">
          -21 15 -21 hstem
          408.5 80.5 vstem
          409 241 rmoveto
          -1 -6 -325 -183 33 -58 369 208 8 70 -378 228 -35 -54 rlineto
          endchar
        </CharString>
        <CharString name="greaterequal">
          8 0 65 hstemhm
          60 482 -118.5 80.5 hintmask 11000000
          95 539 rmoveto
          hintmask 10100000
          329 -185 -1 -6 -325 -163 33 -58 369 188 8 70 -378 208 rlineto
          hintmask 11000000
          -70 -593 rmoveto
          482 65 -482 hlineto
          endchar
        </CharString>
        <CharString name="guillemotleft">
          -88 46 417 hstem
          60 386 vstem
          60 233 237 callgsubr
          191 -40 237 callgsubr
          endchar
        </CharString>
        <CharString name="guillemotright">
          -88 46 417 hstem
          60 386 vstem
          446 273 236 callgsubr
          -191 40 236 callgsubr
          endchar
        </CharString>
        <CharString name="guilsinglleft">
          -279 46 417 hstem
          60 195 vstem
          60 233 rmoveto
          140 -187 55 35 -106 172 101 180 -56 30 -134 -190 rlineto
          endchar
        </CharString>
        <CharString name="guilsinglright">
          -279 46 417 hstem
          60 195 vstem
          121 463 rmoveto
          -56 -30 101 -180 -106 -172 55 -35 140 187 rlineto
          40 vlineto
          endchar
        </CharString>
        <CharString name="h">
          -6 0 64 340 80 0 -20 196 75 hstemhm
          102 89 216 89 hintmask 10111100
          250 hmoveto
          6 48 -16 7 -24 5 -25 3 rlinecurve
          hintmask 11011100
          269 vlineto
          36 48 65 36 39 hhcurveto
          34 30 -27 -81 hvcurveto
          -241 vlineto
          -21 -7 -22 -8 -14 -7 5 -33 rcurveline
          207 hlineto
          6 48 -17 8 -28 5 -27 3 38 callsubr
          -33 -81 -41 -57 -86 hvcurveto
          314 -87 callsubr
          -41 callgsubr
          -603 vlineto
          185 callgsubr
          endchar
        </CharString>
        <CharString name="hungarumlaut">
          -139 532 210 hstem
          30 395 vstem
          85 532 2 callgsubr
        </CharString>
        <CharString name="hyphen">
          77 callsubr
        </CharString>
        <CharString name="hyphen.deva">
          77 callsubr
        </CharString>
        <CharString name="i">
          -311 0 64 345 75 0 -20 185 -20 hstemhm
          102 89 hintmask 10111000
          210 649 0 callsubr
          hintmask 11011000
          -41 callgsubr
          -351 88 callgsubr
          endchar
        </CharString>
        <CharString name="iacute">
          -67 callgsubr
          225 674 -56 callgsubr
        </CharString>
        <CharString name="icircumflex">
          -67 callgsubr
          -22 535 -28 callgsubr
        </CharString>
        <CharString name="idieresis">
          -67 callgsubr
          -12 677 -99 callgsubr
          endchar
        </CharString>
        <CharString name="igrave">
          -67 callgsubr
          179 574 34 callgsubr
        </CharString>
        <CharString name="imacron">
          -278 0 63 346 75 0 -20 118 69 -35 35 hstemhm
          128 89 hintmask 10110100
          15 626 259 callgsubr
          228 hlineto
          hintmask 10101100
          47 34 rlineto
          hintmask 10110100
          -5 35 rlineto
          -163 66 callgsubr
          261 -626 rmoveto
          6 48 -16 7 -24 5 -25 3 rlinecurve
          386 -87 callsubr
          hintmask 11010100
          -43 callsubr
          endchar
        </CharString>
        <CharString name="infinity">
          143 168 69 -65 81 179 76 -73 74 hstemhm
          31 79 519 87 hintmask 10011100
          31 339 rmoveto
          hintmask 01011100
          -107 92 -60 77 59 61 34 78 47 vhcurveto
          hintmask 10101100
          -57 42 51 -59 89 hhcurveto
          88 79 59 104 103 -77 74 -84 -58 -69 -37 -75 -48 hvcurveto
          hintmask 10011100
          58 -45 -53 55 -80 hhcurveto
          -88 -83 -69 -101 hvcurveto
          hintmask 01011100
          182 -86 rmoveto
          -65 -38 41 51 28 12 29 20 22 hvcurveto
          70 33 63 -42 61 -87 rrcurveto
          -46 -30 -38 -29 -55 hhcurveto
          hintmask 10101100
          326 179 rmoveto
          58 32 -55 -52 -32 -13 -31 -21 -20 hvcurveto
          -72 -20 -36 35 -72 93 rrcurveto
          49 36 44 33 44 hhcurveto
          endchar
        </CharString>
        <CharString name="integral">
          -312 621 47 0 -20 hstemhm
          -44 370 hintmask 01100000
          75 -176 rmoveto
          -42 -2 -43 16 -34 35 56 80 rcurveline
          0 74 -66 77 25 vhcurveto
          -115 650 rlineto
          118 77 68 82 3 vhcurveto
          hintmask 10100000
          42 1 43 -16 34 -35 -56 -80 rcurveline
          0 -71 66 -77 -25 vhcurveto
          115 -650 rlineto
          hintmask 01100000
          -116 -79 -70 -83 -2 vhcurveto
          endchar
        </CharString>
        <CharString name="iogonek">
          -311 -254 68 186 64 345 75 0 -20 185 -20 hstemhm
          45 73 -16 89 hintmask 11011010
          210 649 0 callsubr
          hintmask 11101010
          -41 callgsubr
          -351 88 callgsubr
          135 hlineto
          hintmask 11011100
          168 callgsubr
          endchar
        </CharString>
        <CharString name="j">
          -322 -189 -21 619 75 0 -20 hstemhm
          106 89 hintmask 10110000
          214 648 rmoveto
          -15 20 -32 29 -28 11 -22 -14 -25 -32 -14 -30 16 -23 36 -27 25 -10 23 16 26 33 10 27 rrcurveto
          -59 -164 rmoveto
          -42 -1 -54 -12 -40 -18 rrcurveto
          hintmask 11010000
          197 callsubr
          510 vlineto
          endchar
        </CharString>
        <CharString name="k">
          273 callgsubr
          hintmask 10011100
          240 hmoveto
          178 callsubr
          hintmask 01111100
          52 callsubr
          hintmask 10011100
          -603 vlineto
          185 callgsubr
          endchar
        </CharString>
        <CharString name="kcommaaccent">
          273 callgsubr
          53 75 hintmask 10011110
          240 hmoveto
          178 callsubr
          hintmask 01111110
          52 callsubr
          hintmask 10011110
          -603 vlineto
          185 callgsubr
          187 -124 -83 callgsubr
        </CharString>
        <CharString name="l">
          265 callsubr
          vstem
          -21 callgsubr
          endchar
        </CharString>
        <CharString name="lacute">
          265 callsubr
          vstem
          -21 callgsubr
          35 777 -52 callsubr
          endchar
        </CharString>
        <CharString name="lcaron">
          265 callsubr
          113 84 vstem
          -21 callgsubr
          246 723 41 callsubr
        </CharString>
        <CharString name="lcommaaccent">
          -296 0 64 596 75 hstemhm
          102 89 -76 75 hintmask 11100000
          -21 callgsubr
          hintmask 11010000
          60 -124 -83 callgsubr
        </CharString>
        <CharString name="less">
          -21 15 -21 hstem
          84 80.5 vstem
          80 272 rmoveto
          8 -70 369 -208 33 58 -325 183 -1 6 329 205 -35 54 rlineto
          endchar
        </CharString>
        <CharString name="lessequal">
          8 0 65 hstem
          98 80.5 vstem
          94 385 rmoveto
          8 -70 369 -188 33 58 -325 163 -1 6 329 185 -35 54 rlineto
          -412 -528 rmoveto
          -65 482 65 vlineto
          endchar
        </CharString>
        <CharString name="logicalnot">
          -2 0 264 -65 65 hstemhm
          455 77 hintmask 01100000
          60 264 rmoveto
          -65 395 vlineto
          hintmask 10100000
          -199 77 vlineto
          hintmask 01100000
          264 vlineto
          endchar
        </CharString>
        <CharString name="lslash">
          -236 0 64 411 -20 205 75 hstem
          122 89 vstem
          15 318 rmoveto
          30 -53 77 43 rlineto
          -247 88 callgsubr
          226 348 callgsubr
          294 vlineto
          101 57 1 43 -22 17 -80 -46 rlineto
          271 -87 callsubr
          -41 callgsubr
          -284 vlineto
          endchar
        </CharString>
        <CharString name="m">
          284 0 48 -48 64 -31 451 -80 80 -75 75 hstemhm
          102 89 209 89 210 89 hintmask 01010111
          250 hmoveto
          hintmask 10010111
          6 48 rlineto
          hintmask 01010111
          -16 7 -24 5 -25 3 rrcurveto
          274 vlineto
          34 47 61 33 112 callgsubr
          14 0 11 11 vvcurveto
          34 47 62 34 112 callgsubr
          70 -4 28 -10 19 vhcurveto
          -15 28 -38 32 -38 7 rrcurveto
          -33 -80 -41 -56 -86 hvcurveto
          -2 13 -3 9 -4 8 -15 28 -38 32 -38 7 rrcurveto
          -32 -78 -39 -55 -83 hvcurveto
          59 -87 callsubr
          hintmask 01001111
          -41 callgsubr
          hintmask 00100111
          -353 vlineto
          -25 -8 -29 -10 -17 -8 rrcurveto
          hintmask 01010111
          5 -33 rlineto
          endchar
        </CharString>
        <CharString name="macron">
          -183 562 69 hstem
          50 351 vstem
          50 606 -24 callgsubr
        </CharString>
        <CharString name="minus">
          8 199 65 hstem
          60 482 vstem
          60 264 rmoveto
          -65 482 65 vlineto
          endchar
        </CharString>
        <CharString name="multiply">
          -24 22 433 hstem
          75 420 vstem
          285 285 rmoveto
          -158 168 -52 -44 163 -171 -161 -168 50 -48 158 169 158 -169 49 47 -161 169 164 171 -52 46 rlineto
          endchar
        </CharString>
        <CharString name="n">
          165 callgsubr
          hstemhm
          102 89 220 89 hintmask 10011100
          250 hmoveto
          6 48 -16 7 -24 5 -25 3 rlinecurve
          hintmask 11001100
          -80 callsubr
          hintmask 10101100
          -43 callsubr
          endchar
        </CharString>
        <CharString name="nacute">
          165 callgsubr
          hstemhm
          102 89 220 89 hintmask 10011100
          250 hmoveto
          6 48 -16 7 -24 5 -25 3 rlinecurve
          hintmask 11001100
          -80 callsubr
          hintmask 10101100
          -43 callsubr
          387 674 -56 callgsubr
        </CharString>
        <CharString name="ncaron">
          165 callgsubr
          78 65 hstemhm
          102 89 220 89 hintmask 10011110
          250 hmoveto
          6 48 -16 7 -24 5 -25 3 rlinecurve
          hintmask 11001110
          -80 callsubr
          hintmask 10101110
          -43 callsubr
          77 685 -38 callsubr
        </CharString>
        <CharString name="ncommaaccent">
          165 callgsubr
          hstemhm
          102 89 85 75 60 89 hintmask 10011110
          250 hmoveto
          6 48 -16 7 -24 5 -25 3 rlinecurve
          hintmask 11001110
          -80 callsubr
          hintmask 10101110
          -43 callsubr
          216 -124 -83 callgsubr
        </CharString>
        <CharString name="nine">
          -92 -8 104.5 147.5 62 302 62 hstem
          30 95 253 94 vstem
          125 461 rmoveto
          55 23 59 46 27 vhcurveto
          132 37 52 -128 -137 vvcurveto
          -107 -31 -112 -100 -63 vhcurveto
          -158 9 16 -109 rlineto
          188 2 179 145 242 vvcurveto
          168 -86 121 -141 -114 -101 -79 -132 -142 116 -119 190 63 vhcurveto
          -11 53 rlineto
          -114 -33 -86 74 106 vvcurveto
          endchar
        </CharString>
        <CharString name="notequal">
          -2 22 -21 123 65 115 65 99 -20 hstem
          60 472 vstem
          170 -28 rmoveto
          94 152 rlineto
          268 65 -228 hlineto
          71 115 rlineto
          157 65 -116 hlineto
          61 99 -50 28 -79 -127 rlineto
          -288 -65 248 hlineto
          -71 -115 rlineto
          -177 -65 136 hlineto
          -76 -123 rlineto
          endchar
        </CharString>
        <CharString name="ntilde">
          165 callgsubr
          162 78 -36 -20 hstemhm
          102 89 220 89 hintmask 10010111
          250 hmoveto
          6 48 -16 7 -24 5 -25 3 rlinecurve
          hintmask 11000111
          -80 callsubr
          hintmask 10101011
          -43 callsubr
          111 554 144 callgsubr
          hintmask 10010111
          32 35 55 69 40 hvcurveto
          hintmask 10011011
          58 callsubr
        </CharString>
        <CharString name="numbersign">
          28 -9 535 -514 -21 30 -21 138 52 165 52 hstemhm
          60 473 -473 502 -473 473 hintmask 00111010
          135 hmoveto
          hintmask 01011010
          63 -9 22 147 rlineto
          144 hlineto
          hintmask 00111010
          -21 -138 rlineto
          hintmask 01011010
          63 -9 22 147 rlineto
          hintmask 00111100
          105 52 -97 hlineto
          hintmask 00111001
          26 165 rlineto
          100 52 -93 275 callgsubr
          -144 275 callgsubr
          -108 -52 100 hlineto
          -25 -165 rlineto
          hintmask 00111100
          -104 -52 96 hlineto
          216 52 rmoveto
          -144 hlineto
          26 165 rlineto
          143 hlineto
          endchar
        </CharString>
        <CharString name="o">
          187 callgsubr
          hstem
          249 callgsubr
          vstem
          -92 callgsubr
          endchar
        </CharString>
        <CharString name="oacute">
          187 callgsubr
          hstem
          249 callgsubr
          vstem
          -92 callgsubr
          115 629 -56 callgsubr
        </CharString>
        <CharString name="ocircumflex">
          187 callgsubr
          hstem
          249 callgsubr
          vstem
          -92 callgsubr
          -132 490 -28 callgsubr
        </CharString>
        <CharString name="odieresis">
          187 callgsubr
          hstem
          249 callgsubr
          vstem
          -92 callgsubr
          -122 632 -99 callgsubr
          endchar
        </CharString>
        <CharString name="oe">
          203 -20 65 -60 76 198.5 60.5 106 62 hstemhm
          20 95 258 84 hintmask 10111100
          259 45 rmoveto
          -101 -43 97 105 55 12 60 35 42 hvcurveto
          12 17 28 10 31 hhcurveto
          96 39 -98 -108 -54 -10 -77 -56 -37 hvcurveto
          -5 -18 -16 -2 -14 hhcurveto
          286 382 rmoveto
          72 5 57 -44 13 -63 -221 -10 rcurveline
          13 47 25 43 41 22 rrcurveto
          hintmask 01111100
          66 -442 rmoveto
          156 66 -15 43 rlineto
          -20 -45 -42 -13 -42 hhcurveto
          -91 -75 58 122 7 0 7 1 7 hvcurveto
          259 -5 57 56 rlineto
          101 2 -77 74 -104 hhcurveto
          -73 -61 -37 -55 -40 hvcurveto
          59 -41 -63 33 -71 hhcurveto
          -121 -105 -92 -160 hvcurveto
          hintmask 10111100
          -157 102 -99 126 70 64 30 60 41 vhcurveto
          hintmask 01111100
          -49 38 59 -36 91 hhcurveto
          endchar
        </CharString>
        <CharString name="ogonek">
          -323 -245 68 hstem
          37 73 vstem
          192 26 rmoveto
          -97 -44 -58 -65 -60 -53 callsubr
          49 49 46 70 34 vhcurveto
          endchar
        </CharString>
        <CharString name="ograve">
          187 callgsubr
          hstem
          249 callgsubr
          vstem
          -92 callgsubr
          69 529 34 callgsubr
        </CharString>
        <CharString name="ohungarumlaut">
          187 callgsubr
          hstem
          249 callgsubr
          vstem
          -92 callgsubr
          -105 487 2 callgsubr
        </CharString>
        <CharString name="omacron">
          187 callgsubr
          74 69 hstem
          249 callgsubr
          vstem
          -92 callgsubr
          -177 561 -24 callgsubr
        </CharString>
        <CharString name="one">
          -187 0 48 -48 65 -65 76 594 -20 hstemhm
          175 89 hintmask 01011000
          264 645 rmoveto
          -47 25 -192 -126 28 -45 122 58 rlineto
          hintmask 00111000
          -481 vlineto
          hintmask 01011000
          -47 -11 -45 -14 -45 -17 6 -34 rcurveline
          337 hlineto
          hintmask 10011000
          6 48 rlineto
          hintmask 01011000
          -123 17 rlineto
          endchar
        </CharString>
        <CharString name="one.dnom">
          -363 0 25 -25 35 hstemhm
          79 63 hintmask 01100000
          142 305 rmoveto
          6 callsubr
          hintmask 10100000
          2 25 rlineto
          hintmask 01100000
          -59 10 rlineto
          endchar
        </CharString>
        <CharString name="one.numr">
          -363 345 35 270 -20 40 -20 hstemhm
          79 63 hintmask 11010000
          142 650 rmoveto
          hintmask 10110000
          6 callsubr
          2 25 -59 10 rlineto
          endchar
        </CharString>
        <CharString name="onehalf">
          37 0 46 239 40 20 332 callsubr
          387 65 hintmask 11010011
          142 650 rmoveto
          hintmask 11100111
          6 callsubr
          2 25 -59 10 rlineto
          -93 -360 rmoveto
          hintmask 11001011
          143 callsubr
          421 142 -55 callsubr
        </CharString>
        <CharString name="onequarter">
          46 0 247 callgsubr
          227.5 332 callsubr
          359 63 hintmask 11110011
          142 650 rmoveto
          hintmask 11100111
          6 callsubr
          2 25 -59 10 rlineto
          -93 -360 rmoveto
          hintmask 11101011
          143 callsubr
          600 -64 rmoveto
          -42 callsubr
        </CharString>
        <CharString name="onesuperior">
          -363 426 35 hstem
          79 63 vstem
          142 731 rmoveto
          6 callsubr
          2 25 -59 10 rlineto
          endchar
        </CharString>
        <CharString name="ordfeminine">
          -190 204 51 35 50 69 35 135 47 hstemhm
          52 66 -56 59 109 70 hintmask 11111010
          131 340 rmoveto
          -8 7 -5 8 13 vvcurveto
          47 70 -3 42 -3 vhcurveto
          -45 vlineto
          -10 -24 -43 -14 -32 hhcurveto
          -79 30 rmoveto
          -44 36 -39 72 3 vhcurveto
          75 47 10 -24 26 -22 15 -1 rlinecurve
          71 34 -9 29 rlineto
          -2 -10 -11 -3 -10 hhcurveto
          -10 -7 4 10 hvcurveto
          137 vlineto
          46 -1 9 -6 13 vhcurveto
          24 -12 -32 35 -37 hhcurveto
          hintmask 11110110
          -30 -92 -23 -29 -28 hvcurveto
          -23 6 -34 9 -24 vhcurveto
          42 5 4 72 16 5 25 3 33 1 rlinecurve
          23 -12 10 -24 -35 vvcurveto
          -62 vlineto
          hintmask 11111010
          -138 -4 rlineto
          -31 -24 -9 -26 -22 vvcurveto
          -22 -115 rmoveto
          -51 344 51 vlineto
          endchar
        </CharString>
        <CharString name="ordmasculine">
          -180 204 51 31 46 252 45 hstem
          37 72 162 73 vstem
          191 286 rmoveto
          78 75 54 113 112 -74 64 -77 -76 -80 -61 -111 -101 66 -70 88 hvcurveto
          13 46 rmoveto
          -70 -25 64 65 52 16 50 20 15 hvcurveto
          4 10 9 2 12 hhcurveto
          76 19 -87 -58 -66 -25 -32 -11 -5 hvcurveto
          -3 -11 -11 -1 -9 hhcurveto
          -184 -77 rmoveto
          -51 344 51 vlineto
          endchar
        </CharString>
        <CharString name="oslash">
          187 callgsubr
          hstem
          249 callgsubr
          vstem
          248 -20 rmoveto
          117 101 84 166 81 -24 65 -40 44 hvcurveto
          44 71 -52 30 -38 -62 rlineto
          19 -32 -38 10 -40 hhcurveto
          -121 -105 -92 -160 -85 30 -68 48 -45 hvcurveto
          -47 -76 51 -33 46 74 rlineto
          -15 30 34 -8 36 hhcurveto
          -133 267 rmoveto
          55 12 60 35 42 vhcurveto
          12 17 28 10 31 hhcurveto
          33 26 -11 -20 20 hvcurveto
          -172 -281 rlineto
          -21 37 -9 47 49 vvcurveto
          144 -202 rmoveto
          -29 -24 8 14 -20 hvcurveto
          167 271 rlineto
          13 -34 6 -42 -43 vvcurveto
          -53 -9 -77 -56 -37 vhcurveto
          -5 -18 -16 -2 -14 hhcurveto
          endchar
        </CharString>
        <CharString name="otilde">
          187 callgsubr
          138 78 -36 -20 hstemhm
          249 callgsubr
          hintmask 11011100
          -92 callgsubr
          hintmask 11101100
          -161 509 144 callgsubr
          hintmask 11011100
          32 35 55 69 40 hvcurveto
          hintmask 11101100
          58 callsubr
        </CharString>
        <CharString name="p">
          -44 -204 65 120 66 -36 -21 413 82 -76 75 hstemhm
          101 89 241 94 hintmask 11010110
          266 -204 rmoveto
          6 48 -19 8 -33 6 -30 3 rlinecurve
          hintmask 10110110
          129 vlineto
          hintmask 11010110
          -6 26 26 -3 25 163 callsubr
          -113 -74 rlineto
          42 vlineto
          -39 35 -42 -1 -54 -12 -40 -18 rlinecurve
          hintmask 11001110
          12 -47 74 6 rlineto
          -559 vlineto
          -24 -7 -26 -9 -16 294 callgsubr
          hintmask 11010110
          268 607 181 callsubr
          -69 -11 -54 19 -33 22 rrcurveto
          276 vlineto
          26 40 40 21 38 hhcurveto
          endchar
        </CharString>
        <CharString name="paragraph">
          16 -165 111 callsubr
          -52.5 71 700 78 hstemhm
          0 139 129 65 80 65 hintmask 10111100
          291 684 rmoveto
          -199 13 -92 -107 -107 vvcurveto
          -82 55 -77 103 -35 vhcurveto
          38 37 rlineto
          -40 49 -17 33 49 vvcurveto
          86 51 43 78 14 vhcurveto
          hintmask 01111100
          -694 vlineto
          -25 -5 -56 -14 -37 -17 6 -35 rcurveline
          177 771 hlineto
          14 16 -1 -1 15 hvcurveto
          35 -3 rlineto
          hintmask 10111100
          -766 161 vlineto
          1 47 -97 11 rlineto
          702 vlineto
          75 -6 7 57 rlineto
          endchar
        </CharString>
        <CharString name="parenleft">
          -319 -155 887 hstem
          24 94 vstem
          244 -128 rmoveto
          -78 132 -48 148 147 vvcurveto
          125 41 142 94 140 vhcurveto
          -52 26 rlineto
          -126 -153 -51 -152 -133 vvcurveto
          -159 64 -150 102 -140 vhcurveto
          endchar
        </CharString>
        <CharString name="parenright">
          -320 -155 887 hstem
          157 94 vstem
          251 294 rmoveto
          133 -51 152 -126 153 vhcurveto
          -52 -26 rlineto
          94 -140 41 -142 -125 vvcurveto
          -147 -48 -148 -78 -132 vhcurveto
          54 -27 rlineto
          102 140 64 150 159 vvcurveto
          endchar
        </CharString>
        <CharString name="partialdiff">
          6 -34 64 370 69 hstem
          93 87 279 85 vstem
          302 -34 rmoveto
          163 79 157 171 209 -117 196 -214 62 hvcurveto
          -17 -53 121 -37 85 -111 37 -124 rlinecurve
          -98 33 rlineto
          -131 -117 -116 -156 -127 77 -104 132 hvcurveto
          8 64 rmoveto
          -83 3 -47 67 87 vvcurveto
          120 90 127 180 -42 vhcurveto
          6 -32 3 -32 -31 vvcurveto
          -125 -50 -115 -99 -27 vhcurveto
          endchar
        </CharString>
        <CharString name="percent">
          229 1 -21 244 59 245 59 hstem
          60 68 146 69 137 68 146 69 vstem
          201 -28 rmoveto
          448 569 -49 41 -449 -569 rlineto
          -23 424 104 callgsubr
          342 -151 104 callgsubr
          endchar
        </CharString>
        <CharString name="period">
          -394 -33 118 hstem
          81 119 vstem
          200 33 -101 callgsubr
        </CharString>
        <CharString name="period.deva">
          -394 -33 118 hstem
          81 119 vstem
          200 33 -101 callgsubr
        </CharString>
        <CharString name="periodcentered">
          -395 191 118 hstem
          30 119 vstem
          149 257 -101 callgsubr
        </CharString>
        <CharString name="perthousand">
          584 -27 59 -11 -21 214 62 8 59 182 62 hstemhm
          60 69 144 70 137 69 144 70 72 69 144 70 hintmask 0110111111100000
          220 -38 rmoveto
          409 576 -53 36 -408 -574 rlineto
          hintmask 1001111100000000
          47 343 84 callgsubr
          431 -252 rmoveto
          -57 -29 50 50 hvcurveto
          hintmask 1010000110000000
          29 9 28 19 19 vhcurveto
          4 12 11 2 10 hhcurveto
          53 30 -51 -50 -30 -10 -29 -23 -19 hvcurveto
          hintmask 1001111100000000
          -2 -9 -8 -1 -8 hhcurveto
          -11 -59 rmoveto
          hintmask 1010000110000000
          81 58 65 86 79 -63 73 -80 -78 -62 -73 -79 hvcurveto
          hintmask 1001111100000000
          -85 67 -66 77 vhcurveto
          hintmask 1010000001100000
          366 59 84 callgsubr
          endchar
        </CharString>
        <CharString name="pi">
          43 -13 55 -34 -21 30 -21 25 -21 392 76 -70.5 70.5 -65 65 -48 48 hstemhm
          186.5 89 152.5 177 hintmask 1000001010000000
          30 379 rmoveto
          28 -31 79 56 53 -2 -7 -204 -2 -52 -2 -79 -9 -25 rlinecurve
          hintmask 0100010011000000
          -30 13 -30 14 -30 17 -33 -80 rcurveline
          -13 37 30 -6 26 hhcurveto
          104 22 99 143 6 hvcurveto
          7 171 147 -5 rlineto
          hintmask 0010010011000000
          4 -367 34 -32 rlineto
          hintmask 0001100011000000
          62 4 -30 393 72 -2 rlineto
          hintmask 0001000111000000
          39 29 rlineto
          hintmask 0001010011000000
          -4 48 rlineto
          -468 hlineto
          hintmask 1000001010000000
          -35 -11 -45 -40 -25 -38 rrcurveto
          endchar
        </CharString>
        <CharString name="plus">
          -23 0 265 -66 66 hstemhm
          247 77 hintmask 01100000
          324 265 rmoveto
          200 -77 -200 -187 -66 187 vlineto
          hintmask 10100000
          -199 77 vlineto
          hintmask 01100000
          199 187 66 vlineto
          endchar
        </CharString>
        <CharString name="plusminus">
          -63 0 62 76 425 -242 62 hstemhm
          227 77 hintmask 10110000
          304 383 rmoveto
          hintmask 11010000
          180 -77 vlineto
          hintmask 10110000
          -180 -167 -62 167 vlineto
          hintmask 11010000
          -183 77 vlineto
          hintmask 10110000
          183 167 62 vlineto
          -405 -321 rmoveto
          1 -62 rlineto
          394 62 hlineto
          endchar
        </CharString>
        <CharString name="product">
          186 -100 111 callsubr
          718.5 64 hstem
          157 93 285 93 vstem
          30 700 rmoveto
          6 -29 rlineto
          121 -708 hlineto
          241 callsubr
          285 -708 vlineto
          241 callsubr
          83 vlineto
          39 29 -4 35 rlineto
          -623 hlineto
          -31 -30 -14 -21 -32 hvcurveto
          endchar
        </CharString>
        <CharString name="q">
          -66 -204 62 127 82 357 66 -22 -20 hstemhm
          20 95 237 89 hintmask 11011100
          491 420 rmoveto
          -17 48 rlineto
          hintmask 11101100
          -79 -13 rlineto
          21 -30 -42 14 -50 hhcurveto
          -132 -121 -102 -155 -137 95 -113 135 2 hvcurveto
          102 68 rlineto
          -191 vlineto
          -21 -6 -49 -15 -24 -12 5 -33 rcurveline
          229 hlineto
          6 48 -14 6 -21 5 -22 3 rlinecurve
          hintmask 11011100
          530 vlineto
          -190 -321 rmoveto
          -83 -53 77 100 hvcurveto
          hintmask 11101100
          68 25 67 46 41 vhcurveto
          63 14 61 -20 42 -31 rrcurveto
          -283 vlineto
          hintmask 11011100
          -23 -38 -34 -10 -29 hhcurveto
          endchar
        </CharString>
        <CharString name="question">
          -12 1 -21 252 438 -205 205 -61 61 hstemhm
          101 77 211 80 hintmask 10101100
          173 465 rmoveto
          hintmask 10011100
          10 101 59 34 60 11 37 -2 rlinecurve
          29 -22 21 -31 -44 vvcurveto
          hintmask 11000100
          -126 -174 2 1 -156 vhcurveto
          81 hlineto
          105 172 13 143 vvcurveto
          hintmask 10011100
          97 -78 80 -112 -55 -64 -19 -45 -59 vhcurveto
          hintmask 10101100
          0 3 -66 12 -75 vhcurveto
          90 -424 rmoveto
          14 -33 26 -21 36 -7 30 14 21 24 10 34 -6 32 -27 25 -40 15 -36 -18 -22 -27 -6 -38 rrcurveto
          endchar
        </CharString>
        <CharString name="questiondown">
          -12 -200 61 hstem
          101 80 211 77 vstem
          397 5 rmoveto
          -10 -101 -59 -34 -60 -11 -37 2 rlinecurve
          -29 22 -21 31 44 vvcurveto
          126 174 -2 -1 156 vhcurveto
          -81 hlineto
          -105 -172 -13 -143 vvcurveto
          -97 78 -80 112 55 64 19 45 59 vhcurveto
          0 -3 66 -12 75 vhcurveto
          -90 424 rmoveto
          -14 33 -26 21 -36 7 -30 -14 -21 -24 -10 -34 6 -32 27 -25 40 -15 36 18 22 27 6 38 rrcurveto
          endchar
        </CharString>
        <CharString name="quotedbl">
          -251 475 -20 hstem
          28 309 vstem
          94 454 243 callgsubr
          234 -21 243 callgsubr
          endchar
        </CharString>
        <CharString name="quotedblbase">
          -212 -108 349 callgsubr
          -108 -33 callsubr
          192 -38 -33 callsubr
          endchar
        </CharString>
        <CharString name="quotedblleft">
          -212 492 266 hstem
          30 80 84 80 vstem
          149 758 -13 callgsubr
          135 38 -13 callgsubr
          endchar
        </CharString>
        <CharString name="quotedblright">
          -212 492 349 callgsubr
          492 -33 callsubr
          192 -38 -33 callsubr
          endchar
        </CharString>
        <CharString name="quoteleft">
          -376 492 266 hstem
          30 80 vstem
          149 758 -13 callgsubr
          endchar
        </CharString>
        <CharString name="quoteright">
          -375 492 266 hstem
          108 81 vstem
          69 492 -33 callsubr
          endchar
        </CharString>
        <CharString name="quotesinglbase">
          -375 -108 266 hstem
          108 81 vstem
          69 -108 -33 callsubr
          endchar
        </CharString>
        <CharString name="quotesingle">
          -425 504 240 hstem
          -21 140 vstem
          44 504 rmoveto
          41 73 25 74 9 77 -72 16 rcurveline
          -27 -20 -2 -35 -4 -68 -35 -96 rlinecurve
          endchar
        </CharString>
        <CharString name="r">
          -12 callsubr
          endchar
        </CharString>
        <CharString name="racute">
          -12 callsubr
          320 674 -56 callgsubr
        </CharString>
        <CharString name="radical">
          90 377 91 0 -20 hstemhm
          20 575 hintmask 01100000
          212 468 rmoveto
          -62 hlineto
          hintmask 10100000
          -130 -108 39 -45 96 62 153 -454 36 -2 21 5 32 14 rlinecurve
          198 782 -71 29 -177 -709 rlineto
          endchar
        </CharString>
        <CharString name="rcaron">
          138 callgsubr
          78 65 hstemhm
          102 89 142.5 77.5 hintmask 11000110
          288 hmoveto
          6 48 -20 9 -48 7 -35 2 rlinecurve
          226 vlineto
          hintmask 10010111
          42 54 55 42 40 23 rrcurveto
          hintmask 11000111
          11 -110 rlineto
          54 hlineto
          13 51 8 60 -3 51 -32 20 -38 6 -45 -19 -105 -112 rcurveline
          hintmask 10001110
          91 -87 callsubr
          hintmask 10100110
          -41 callgsubr
          -352 vlineto
          -25 -8 -31 -10 -17 -9 5 -33 rcurveline
          10 685 -38 callsubr
        </CharString>
        <CharString name="rcommaaccent">
          138 callgsubr
          hstemhm
          102 89 -47 75 114.5 77.5 hintmask 11000100
          288 hmoveto
          6 48 -20 9 -48 7 -35 2 rlinecurve
          226 vlineto
          hintmask 10010101
          42 54 55 42 40 23 rrcurveto
          hintmask 11000101
          11 -110 rlineto
          54 hlineto
          13 51 8 60 -3 51 -32 20 -38 6 -45 -19 -105 -112 rcurveline
          hintmask 10001100
          91 -87 callsubr
          hintmask 10100100
          -41 callgsubr
          -352 vlineto
          -25 -8 -31 -10 -17 -9 5 -33 rcurveline
          hintmask 11000010
          86 -124 -83 callgsubr
        </CharString>
        <CharString name="registered">
          -24 240 41 92 30 73 36 106.5 31.5 79 39 hstem
          16 42 123 56 111 60 104 42 vstem
          285 768 rmoveto
          -155 -114 -108 -156 -152 107 -112 160 158 113 108 155 155 -113 110 -156 hvcurveto
          -4 -487 rmoveto
          -139 -84 92 128 133 92 95 135 135 92 -94 -132 -135 -97 -87 -134 hvcurveto
          -138 369 rmoveto
          -30 vlineto
          38 -3 rlineto
          -206 vlineto
          -14 -5 -18 -6 -9 -5 4 -22 rcurveline
          141 hlineto
          1 28 -49 4 rlineto
          71 44 vlineto
          3 3 0 3 hhcurveto
          62 -103 rlineto
          81 hlineto
          1 28 -34 3 -54 82 rlineto
          44 15 18 32 31 vvcurveto
          47 -42 39 -81 vhcurveto
          63 -86 rmoveto
          -28 -19 -24 -69 -9 -8 0 1 -6 vhcurveto
          97 vlineto
          68 6 rlineto
          33 -13 10 -20 -19 vvcurveto
          endchar
        </CharString>
        <CharString name="ring">
          -317 711 41 115 61 hstem
          30 51 115 51 vstem
          142 711 -68 callsubr
          endchar
        </CharString>
        <CharString name="s">
          -8 callgsubr
          endchar
        </CharString>
        <CharString name="sacute">
          -8 callgsubr
          286 554 -56 callgsubr
        </CharString>
        <CharString name="scaron">
          -175 -20 62 -41 -21 447 61 54 65 hstemhm
          39 84 159.5 12 callsubr
          -24 565 -38 callsubr
        </CharString>
</ttFont>
